<?xml version="1.0" encoding="utf-8"?>
<!-- Generator: Adobe Illustrator 16.0.0, SVG Export Plug-In . SVG Version: 6.00 Build 0)  -->
<!DOCTYPE svg PUBLIC "-//W3C//DTD SVG 1.1//EN" "http://www.w3.org/Graphics/SVG/1.1/DTD/svg11.dtd">
<svg version="1.1" id="레이어_1" xmlns="http://www.w3.org/2000/svg" xmlns:xlink="http://www.w3.org/1999/xlink" x="0px"
	 y="0px" width="570.304px" height="33.454px" viewBox="-126.424 2.574 570.304 33.454"
	 enable-background="new -126.424 2.574 570.304 33.454" xml:space="preserve">
<g>
	<path d="M-106.685,2.574v7.695l-2.007-1.004h-10.037v6.74h6.69l2.008-1.004v8.699l-2.008-1.002h-6.69v11.325l1.003,2.006h-8.698
		l1.004-2.006V6.589V4.582l-1.004-2.008H-106.685z"/>
	<path d="M-93.686,2.574l-1.003,2.008v29.44l1.003,2.006h-8.698l1.004-2.006V4.582l-1.004-2.008H-93.686z"/>
	<path d="M-73.325,2.574l4.683,4.684v7.885h-6.69V9.265h-7.362v20.072h7.362v-3.154h-2.916V20.21h9.606v11.136l-4.683,4.683h-10.945
		h-0.43l-4.684-4.683v-2.247V7.259l4.684-4.684H-73.325z"/>
	<path d="M-41.593,2.574l-1.004,2.008v24.516v2.247l-4.684,4.683h-0.43h-0.478h-10.468l-4.683-4.683V4.582l-1.003-2.008h8.697
		l-1.003,2.008v24.754h7.361V4.582l-1.004-2.008H-41.593z"/>
	<path d="M-20.9,2.574l4.686,4.684v13.24l-4.111,4.108l3.107,9.415l1.672,2.006h-8.938l0.049-2.006l-2.82-8.841h-2.342v8.841
		l1.003,2.006h-8.698l1.003-2.006V4.582l-1.003-2.008H-20.9z M-29.597,18.489h6.69V9.265h-6.69V18.489z"/>
	<path d="M8.494,2.574v7.695L6.487,9.265H-3.55v6.74h6.69L5.148,15v8.699L3.14,22.697h-6.69v6.64H6.487l2.008-1.002v7.693H-2.547
		h-8.698l1.003-2.006V4.582l-1.003-2.008H8.494z"/>
	<path d="M28.855,2.574l4.682,4.684v2.245v6.021l-3.775,3.776l3.775,3.775v8.269l-4.682,4.683H17.479l-4.683-4.683v-4.492h6.691
		v2.483h7.36v-6.688h-6.166v-6.692h6.166V9.265h-7.36v2.487h-6.691V7.259l4.683-4.684H28.855z"/>
	<path d="M47.539,2.574v2.008v24.754h0.096h2.963v6.691h-3.059h-6.595h-1.099h-1.959v-2.39v-2.293v-2.009h2.963V9.265h-3.011v-6.69
		H47.539z"/>
	<path d="M76.645,2.574v5.449L65.224,34.022v0.432l0.094,1.574h-9.415l1.625-2.055l0.956-1.959l9.701-22.75H56.907L54.9,10.269
		V2.574H76.645z"/>
	<path d="M80.948,13.089l0.765-10.467h5.592l-1.769,9.607h-2.868L80.948,13.089z"/>
	<path d="M107.663,2.574l4.683,4.684v4.97h-6.69V9.265h-7.36v6.644h8.411l5.64,5.641v9.796l-4.683,4.683H96.287l-4.683-4.683v-5.163
		h6.691v3.154h7.36V22.6h-8.411l-5.64-5.593V7.259l4.683-4.684H107.663z"/>
	<path fill="#3366FF" d="M144.988,2.574l4.684,4.684v13.24l-4.111,4.108l3.108,9.415l1.672,2.006h-8.938l0.048-2.006l-2.818-8.841
		h-2.344v8.841l1.004,2.006h-8.697l1.004-2.006V4.582l-1.004-2.008H144.988z M136.289,18.489h6.691V9.265h-6.691V18.489z"/>
	<path fill="#3366FF" d="M174.381,2.574v7.695l-2.008-1.004h-10.036v6.74h6.691L171.036,15v8.699l-2.008-1.002h-6.691v6.64h10.036
		l2.008-1.002v7.693h-11.038h-8.699l1.004-2.006V4.582l-1.004-2.008H174.381z"/>
	<path fill="#3366FF" d="M194.74,2.574l4.686,4.684v4.97h-6.692V9.265h-7.359v6.644h8.413l5.639,5.641v9.796l-4.686,4.683h-11.373
		l-4.685-4.683v-5.163h6.691v3.154h7.359V22.6h-8.409l-5.642-5.593V7.259l4.685-4.684H194.74z"/>
	<path fill="#3366FF" d="M223.466,2.574v7.695l-2.007-1.004h-10.038v6.74h6.69L220.117,15v8.699l-2.006-1.002h-6.69v6.64h10.038
		l2.007-1.002v7.693h-11.043h-8.699l1.006-2.006V4.582l-1.006-2.008H223.466z"/>
	<path fill="#3366FF" d="M246.166,36.028l0.432-2.483l-0.768-3.25h-9.367l-0.764,3.25l0.43,2.483h-8.365l0.86-1.862l7.888-29.632
		l-0.719-1.959h10.708l-0.715,1.959l7.882,29.632l0.862,1.862H246.166z M244.35,24.222l-3.202-13.619l-3.203,13.619H244.35z"/>
	<path fill="#3366FF" d="M275.222,2.574l4.685,4.684v13.24l-4.11,4.108l3.104,9.415l1.675,2.006h-8.938l0.049-2.006l-2.822-8.841
		h-2.34v8.841l1.003,2.006h-8.7l1.005-2.006V4.582l-1.005-2.008H275.222z M266.525,18.489h6.689V9.265h-6.689V18.489z"/>
	<path fill="#3366FF" d="M300.933,2.574l4.686,4.684v8.172h-6.692V9.265h-7.359v20.072h7.359v-6.163h6.692v8.172l-4.686,4.683
		h-10.466h-0.477h-0.43l-4.687-4.683v-2.247V7.259l4.687-4.684H300.933z"/>
	<path fill="#3366FF" d="M331.475,2.574l-1.001,2.008v10.657v6.691v12.092l1.001,2.006h-8.695l1.001-2.006V22.648h-6.164v11.374
		l1.002,2.006h-8.698l1.006-2.006V4.582l-1.006-2.008h8.698l-1.002,2.008v10.657v0.717h6.164V4.582l-1.001-2.008H331.475z"/>
	<path fill="#00913A" d="M364.116,2.574l4.685,4.684v8.267l-3.776,3.776l3.776,3.775v8.841l-4.113,4.11h-16.966l1.006-2.006V4.582
		l-1.006-2.008H364.116z M355.419,15.956h5.974V9.265h-5.974V15.956z M355.419,29.911h5.974v-7.263h-5.974V29.911z"/>
	<path fill="#00913A" d="M381.988,2.574l-1.191,2.389v24.373h10.037l2.006-1.002v7.693h-11.041h-8.7l1.006-2.006V4.582l-1.006-2.008
		H381.988z"/>
	<path fill="#00913A" d="M413.677,2.574l4.683,4.684v24.087l-4.683,4.683H402.3l-4.682-4.683V7.259l4.682-4.684H413.677z
		 M404.307,29.337h7.363V9.265h-7.363V29.337z"/>
	<path fill="#00913A" d="M439.196,2.574l4.685,4.684v7.885h-6.692V9.265h-7.358v20.072h7.358v-3.154h-2.913V20.21h9.605v11.136
		l-4.685,4.683h-10.942h-0.432l-4.684-4.683v-2.247V7.259l4.684-4.684H439.196z"/>
</g>
</svg>
