<?xml version="1.0" encoding="utf-8"?>
<!-- Generator: Adobe Illustrator 16.0.0, SVG Export Plug-In . SVG Version: 6.00 Build 0)  -->
<!DOCTYPE svg PUBLIC "-//W3C//DTD SVG 1.1//EN" "http://www.w3.org/Graphics/SVG/1.1/DTD/svg11.dtd">
<svg version="1.1" id="레이어_1" xmlns="http://www.w3.org/2000/svg" xmlns:xlink="http://www.w3.org/1999/xlink" x="0px"
	 y="0px" width="648.09px" height="376.077px" viewBox="107.792 6.78 648.09 376.077"
	 enable-background="new 107.792 6.78 648.09 376.077" xml:space="preserve">
<g id="Group_1642" transform="translate(-1052.636 2529)">
	<path id="Path_29341" fill="#9AC4F8" d="M876.7-1944.055l-10.568-14.191c-1.261-1.67-3.226-2.658-5.317-2.677h-17v-9.518h17
		c5.096,0.009,9.889,2.417,12.938,6.5l10.568,14.192L876.7-1944.055z"/>
	<path id="Path_29342" fill="#9AC4F8" d="M895.737-1823.538c-0.009,33.22-26.938,60.148-60.157,60.156
		c-1.152,0-2.27-0.033-3.387-0.1l-1.524-0.1c-0.745-0.068-1.524-0.136-2.27-0.237c-0.251,0.002-0.502-0.031-0.744-0.1
		c-1.152-0.101-2.235-0.301-3.354-0.509c-1.016-0.169-2-0.405-3.015-0.644c-2.315-0.541-4.591-1.242-6.809-2.101
		c-0.553-0.173-1.096-0.377-1.626-0.609c-0.463-0.163-0.916-0.355-1.354-0.576c-0.645-0.271-1.355-0.576-2-0.915
		c-3.192-1.513-6.231-3.327-9.078-5.419c-0.474-0.339-0.982-0.677-1.423-1.05c-0.542-0.44-1.152-0.915-1.66-1.355
		c-1.694-1.39-3.312-2.871-4.844-4.437c-0.644-0.645-1.287-1.355-1.9-2.066c-0.474-0.508-0.982-1.084-1.423-1.66
		c-0.508-0.576-1.016-1.253-1.49-1.863c-0.609-0.778-1.219-1.592-1.762-2.404c-6.87-9.995-10.533-21.846-10.5-33.975v-0.034
		c0.034-25,13.888-46.337,35.566-55.415c3.899-1.626,9.822-5.521,9.822-9.788v-108.496l2.135-4.369h28.079v112.794
		c0.111,1.824,0.882,3.546,2.168,4.844c2.074,2.206,4.591,3.949,7.385,5.115c0.441,0.176,0.871,0.38,1.287,0.61
		c1.592,0.663,3.131,1.444,4.606,2.337c0.609,0.339,1.253,0.711,1.863,1.118c0.813,0.508,1.626,1.05,2.4,1.592
		c14.327,10.026,23.473,26.353,24.794,45.151C895.669-1826.553,895.737-1825.063,895.737-1823.538z"/>
	<path id="Path_29343" fill="#82BAFF" d="M851.026-2001.604v88.033c-1.457-49.148-19.884-69.742-28.217-76.618
		c-0.744-0.609-1.457-1.151-2-1.523v-5.556l2.135-4.37h28.08L851.026-2001.604z"/>
	<path id="Path_29344" fill="#70C8D6" d="M895.567-1828.042c-1.354-18.801-10.466-35.159-24.827-45.186
		c-2.801-1.945-5.771-3.635-8.874-5.047c5.904,8.964,9.394,19.302,10.128,30.011c0.1,1.49,0.169,2.981,0.169,4.472
		c0.061,33.162-26.774,60.096-59.938,60.156c-9.122,0.017-18.129-2.046-26.335-6.029c18.74,27.429,56.168,34.472,83.597,15.731
		c16.407-11.21,26.219-29.801,26.217-49.672C895.737-1825.062,895.668-1826.552,895.567-1828.042z"/>
	<path id="Path_29345" fill="#B6C2CC" d="M858.544-1998.386c-0.015,2.164-0.864,4.239-2.371,5.792
		c-1.371,1.39-3.201,2.232-5.147,2.371c-0.214,0.029-0.43,0.041-0.645,0.034h-28.855c-0.238,0.006-0.476-0.006-0.712-0.034
		c-4.243-0.381-7.492-3.939-7.485-8.2c0.015-2.164,0.863-4.238,2.371-5.792c1.549-1.536,3.644-2.399,5.826-2.399h28.858
		C854.908-2006.593,858.561-2002.91,858.544-1998.386z"/>
	<path id="Path_29346" fill="#A4E6F7" d="M850.348-2005.94c4.159,0.019,7.521,3.395,7.521,7.553c-0.018,1.991-0.806,3.897-2.2,5.318
		c-1.26,1.268-2.928,2.047-4.708,2.2h-0.068c-0.179,0.03-0.36,0.042-0.542,0.034h-28.857c-0.216,0.006-0.431-0.005-0.645-0.034
		h-0.067c-3.905-0.326-6.9-3.603-6.876-7.521c0.021-1.983,0.795-3.885,2.168-5.317c1.425-1.413,3.345-2.216,5.352-2.236
		L850.348-2005.94z M850.348-2006.616h-28.855c-4.503-0.026-8.174,3.603-8.2,8.105c0,0.031,0,0.063,0,0.095
		c0.005,4.255,3.248,7.808,7.486,8.199c0.235,0.028,0.473,0.04,0.711,0.034h28.858c0.215,0.007,0.431-0.005,0.644-0.034
		c1.943-0.153,3.769-0.994,5.148-2.37c1.515-1.549,2.365-3.627,2.371-5.792c0.039-4.508-3.583-8.192-8.091-8.231
		c-0.023,0-0.048,0-0.072,0V-2006.616z"/>
	<circle id="Ellipse_438" fill="#70C8D6" cx="820.779" cy="-1847.79" r="4.302"/>
	<circle id="Ellipse_439" fill="#70C8D6" cx="833.141" cy="-1832.277" r="7.689"/>
	<path id="Path_29347" fill="#B58FEF" d="M887.539-1822.622v0.236c-0.261,28.731-23.763,51.812-52.494,51.551
		c-13.686-0.124-26.771-5.636-36.42-15.342c-8.318-8.31-13.521-19.229-14.734-30.925v-0.034c7.987-4.843,17.147-7.408,26.488-7.418
		c15.818,0.17,30.417,12.871,53.755,9.722C872.319-1816.094,880.231-1818.728,887.539-1822.622z"/>
	<path id="Path_29348" fill="#8C6ACC" d="M887.539-1822.623v0.237c-0.11,28.582-23.37,51.663-51.952,51.553
		c-0.003,0-0.005,0-0.008,0c-14.5,0-26.115-4.471-35.532-13.955c12.092,2.066,48.369,0.474,64.831-30.18
		C871.823-1815.882,878.767-1818.153,887.539-1822.623z"/>
	<circle id="Ellipse_440" fill="#8C6ACC" cx="852.199" cy="-1803.513" r="7.757"/>
	<path id="Path_29349" fill="#82BAFF" d="M908.065-1894.533h-8.875c-0.34-0.008-0.618-0.271-0.644-0.61l-1.151-12.6
		c-1.015-5.605-4.691-10.368-9.856-12.771c-2.18-1.076-4.245-2.369-6.165-3.86c-5.318-4.132-10.095-14.972-12.329-20.765
		c-0.868-2.146,0.022-4.602,2.065-5.69l0.2-0.101l10.365-5.655c1.8-0.986,4.033-0.669,5.487,0.778
		c4.605,4.573,14.022,15.954,17.951,35.973C910.436-1892.976,908.065-1894.533,908.065-1894.533z"/>
	<path id="Path_29350" fill="#9AC4F8" d="M908.065-1894.531h-1.455c1.084-5.386-3.658-26.082-10.873-39.766
		c-10.5-19.884-17.479-17.783-24.389-16.7l10.365-5.656c1.8-0.985,4.033-0.668,5.487,0.779c4.606,4.573,14.022,15.954,17.952,35.972
		C910.436-1892.976,908.065-1894.531,908.065-1894.531z"/>
	<circle id="Ellipse_441" fill="#8C6ACC" cx="800.048" cy="-1812.056" r="4.302"/>
	<path id="Path_29351" fill="#9AC4F8" d="M1011.291-1926.578v29.672c-0.006,1.513-1.23,2.738-2.744,2.744h-20.221v28.08
		c0.027,1.515-1.178,2.766-2.693,2.794c-1.515,0.028-2.766-1.178-2.794-2.692c-0.001-0.034-0.001-0.068,0-0.102v-30.823
		c0.006-1.514,1.23-2.738,2.744-2.744h20.221v-26.894c-0.01-1.004,0.538-1.931,1.423-2.405c0.397-0.245,0.854-0.375,1.321-0.373
		C1010.061-1929.316,1011.285-1928.091,1011.291-1926.578z"/>
	<path id="Path_29352" fill="#82BAFF" d="M1011.292-1926.578v29.672c-0.006,1.513-1.23,2.738-2.744,2.744h-20.222v25.844h-2.337
		c0,0-0.136-26.895,0-28.012c0.169-1.118,20.56,0.644,22.728-2.134c2.2-2.744,0.576-6.64,0.711-17.241
		c0.101-7.689-0.406-11.415-2.199-13.278c0.396-0.245,0.854-0.374,1.32-0.373
		C1010.064-1929.323,1011.278-1928.093,1011.292-1926.578z"/>
	<path id="Path_29353" fill="#9AC4F8" d="M968.985-1916.215v50.165c-0.027,1.516-1.278,2.722-2.794,2.693
		c-1.476-0.027-2.665-1.217-2.692-2.693v-43.019l-26.928,29.672c-0.9,0.999-2.392,1.199-3.523,0.474
		c-0.132-0.078-0.256-0.169-0.372-0.271c-1.126-1.024-1.216-2.766-0.2-3.9l31.738-34.956c0.107-0.13,0.233-0.244,0.373-0.339
		c1.212-0.913,2.934-0.671,3.848,0.541c0.354,0.469,0.547,1.039,0.553,1.627L968.985-1916.215z"/>
	<path id="Path_29354" fill="#82BAFF" d="M963.465-1898.668v-10.4l-26.928,29.672c-0.9,0.999-2.391,1.199-3.523,0.475l31.23-35.125
		L963.465-1898.668z"/>
	<path id="Path_29355" fill="#82BAFF" d="M968.985-1916.215v50h-2.472c0,0,0.677-41.188,0-46.912
		c-0.196-1.89-0.873-3.696-1.965-5.25c1.229-0.918,2.97-0.664,3.887,0.564c0.346,0.464,0.538,1.024,0.55,1.604V-1916.215z"/>
	<path id="Path_29356" fill="#263238" d="M1001.537-1862.967v5.759c-0.006,4.243-3.445,7.683-7.689,7.688h-31.264
		c-4.255,0.006-7.711-3.435-7.723-7.688v-5.759c0.012-4.254,3.468-7.694,7.723-7.688h31.264c4.231-0.015,7.674,3.403,7.689,7.635
		C1001.537-1863.003,1001.537-1862.985,1001.537-1862.967z"/>
	<path id="Path_29357" fill="#414D53" d="M1001.537-1862.967v5.759c-0.006,4.244-3.445,7.683-7.689,7.688h-31.264
		c-4.255,0.006-7.711-3.435-7.723-7.688v-2.574c20.933,1.728,32.517-6.232,37.395-10.907h1.592
		C998.103-1870.677,1001.543-1867.221,1001.537-1862.967z"/>
	<path id="Path_29358" fill="#9AC4F8" d="M1047.636-1776.391v9.179c-0.006,2.056-1.671,3.721-3.726,3.727H912.419
		c-2.044-0.021-3.69-1.683-3.692-3.727v-9.179c0.002-0.874,0.301-1.723,0.848-2.405l42.645-50.536
		c0.11-0.149,0.248-0.275,0.406-0.372c0.666-0.61,1.536-0.949,2.439-0.949h46.234c0.883,0.011,1.733,0.335,2.4,0.915
		c0.17,0.107,0.318,0.245,0.439,0.406l42.611,50.537C1047.323-1778.125,1047.637-1777.273,1047.636-1776.391z"/>
	<rect id="Rectangle_338" x="952.625" y="-1840.916" fill="#9AC4F8" width="51.045" height="19.917"/>
	<path id="Path_29359" fill="#82BAFF" d="M1047.636-1776.391v9.18c-0.006,2.055-1.671,3.72-3.726,3.726h-45.118
		c17.817-14.531,9.891-46.337,2.438-57.515c-0.371-0.576-0.778-1.084-1.117-1.559c-2.574-3.149-6.64-5.859-11.348-8.129
		c-13.82-6.74-32.822-9.823-32.822-9.823l0.136-0.439h47.624v11.178c0.17,0.107,0.319,0.245,0.44,0.406l42.611,50.537
		C1047.322-1778.143,1047.633-1777.281,1047.636-1776.391z"/>
	<path id="Path_29360" fill="#C7D3DE" d="M1004.619-1838.003h-52.908c-2.782,0.005-5.042-2.247-5.047-5.029c0-0.006,0-0.012,0-0.018
		v-8.773c-0.005-2.782,2.246-5.042,5.029-5.047c0.006,0,0.012,0,0.018,0h52.908c2.782-0.005,5.042,2.246,5.047,5.029
		c0,0.006,0,0.012,0,0.018v8.739c0.031,2.774-2.192,5.049-4.967,5.08C1004.673-1838.003,1004.646-1838.003,1004.619-1838.003z"/>
	<path id="Path_29361" fill="#E8505B" d="M1038.932-1771.514c0,1.457-1.423,2.608-3.218,2.608H920.583
		c-1.729,0-3.218-1.152-3.218-2.608l0.542-6.368c-0.008-0.645,0.264-1.262,0.745-1.692l20.188-23.474
		c7.316-1.423,15.412-2.065,22.491-0.678c18.494,3.727,20.493,11.11,33.6,11.348c4.887,0.04,9.751-0.656,14.431-2.066
		c4.045-1.226,7.915-2.968,11.516-5.182l16.733,20.052c0.48,0.431,0.752,1.048,0.744,1.692L1038.932-1771.514z"/>
	<path id="Path_29362" fill="#F14062" d="M1038.931-1771.513c0,1.457-1.423,2.608-3.218,2.608h-31.941
		c5.014-7.215,6.334-16.53,5.623-25.539c4.046-1.226,7.916-2.968,11.517-5.182l16.732,20.052c0.481,0.431,0.753,1.048,0.745,1.693
		L1038.931-1771.513z"/>
	<circle id="Ellipse_442" fill="#D44C56" cx="943.344" cy="-1789.94" r="5.69"/>
	<circle id="Ellipse_443" fill="#D44C56" cx="1001.537" cy="-1774.831" r="3.794"/>
	<circle id="Ellipse_444" fill="#82BAFF" cx="987.615" cy="-1806.571" r="7.316"/>
	<circle id="Ellipse_445" fill="#82BAFF" cx="970.408" cy="-1814.497" r="3.895"/>
	<circle id="Ellipse_446" fill="#82BAFF" cx="983.144" cy="-1822.457" r="2.845"/>
	<g id="Group_1376" transform="translate(1052.636 -2145.235)">
		<path id="Path_29012" fill="#263238" d="M0,381.291c0-0.206-171.95-0.31-384.19-0.31c-212.242,0-384.191,0.101-384.191,0.31
			s171.951,0.309,384.191,0.309C-171.951,381.599,0,381.497,0,381.291z"/>
	</g>
	<path id="Path_29313" fill="#9AC4F8" d="M537.057-1913.342H420.94c-3.563,0.02-6.467-2.854-6.487-6.417
		c-0.006-1.22,0.333-2.417,0.979-3.452l48.3-75.245c0.866-1.336,1.328-2.895,1.33-4.486l0.031-23.143h27.815l0.031,23.143
		c0.002,1.592,0.464,3.15,1.33,4.486l48.3,75.245c1.875,3.046,0.925,7.034-2.122,8.909
		C539.429-1913.674,538.255-1913.342,537.057-1913.342z"/>
	<path id="Path_29314" fill="#9AC4F8" d="M466.886-2022.62c0,0,18.409-1.794,18.626,10.611c0.217,12.406,5.474-16.552,5.474-16.552
		l-24.1,1.423V-2022.62z"/>
	<path id="Path_29315" fill="#82BAFF" d="M537.057-1913.342h-44.058c8.787-7.486,8.416-16.366,9.622-25.524
		c1.887-14.294-0.8-34.621-16.769-59.621c-0.773-3.31-0.247-21.534-0.093-27.6h7.085l0.031,23.143
		c0.002,1.593,0.465,3.15,1.331,4.486l48.3,75.245c1.9,3,1.009,6.974-1.992,8.874
		C539.48-1913.685,538.281-1913.338,537.057-1913.342z"/>
	<path id="Path_29316" fill="#263238" d="M529.075-1918.88H428.336c-4.517,0-6-3.279-3.589-6.775l22.122-34.652
		c3.095-0.692,6.271-0.952,9.437-0.772c13.892,1.33,17.512,7.858,32.022,7.054c4.142-0.196,8.235-0.978,12.159-2.32
		c0.866-0.277,1.733-0.588,2.537-0.928c2.617-1.084,5.091-2.486,7.364-4.177l22.307,35.8
		C535.046-1922.129,533.592-1918.88,529.075-1918.88z"/>
	<path id="Path_29317" fill="#263238" d="M529.074-1918.88h-31.249c3.744-4.733,5.971-25.399,4.548-38.334
		c0.866-0.277,6.343-2.382,7.982-4.238l22.307,35.8C535.045-1922.129,533.591-1918.88,529.074-1918.88z"/>
	<path id="Path_29318" fill="#B6C2CC" d="M492.504-2022.62h-27.041c-3.622-0.003-6.557-2.938-6.559-6.56v-0.588
		c0.002-3.621,2.938-6.557,6.559-6.559h27.041c3.622,0.001,6.558,2.937,6.559,6.559v0.588
		C499.061-2025.558,496.126-2022.623,492.504-2022.62z"/>
	<circle id="Ellipse_432" fill="#414D53" cx="448.569" cy="-1933.268" r="4.455"/>
	<circle id="Ellipse_433" fill="#82BAFF" cx="490.459" cy="-1972.374" r="4.455"/>
	<circle id="Ellipse_434" fill="#414D53" cx="498.971" cy="-1929.121" r="4.858"/>
	<circle id="Ellipse_435" fill="#414D53" cx="482.232" cy="-1943.848" r="6.095"/>
	<circle id="Ellipse_436" fill="#82BAFF" cx="466.976" cy="-1982.553" r="6.095"/>
	<g id="Group_1491" transform="translate(1092.945 -2387.699)">
		<path id="Path_29319" fill="#B6C2CC" d="M-766.617,384.508h129.018c0.974,0.001,1.764-0.788,1.764-1.762c0-0.001,0-0.001,0-0.002
			c-0.011-0.97-0.794-1.753-1.764-1.763h-129.018c-0.974-0.001-1.763,0.788-1.764,1.762c0,0,0,0,0,0.001
			C-768.37,383.714-767.587,384.499-766.617,384.508z"/>
	</g>
	<path id="Path_29320" fill="#C7D3DE" d="M299.255-1763.967h101.08c-0.022-16.287-13.229-29.479-29.516-29.484h-42.048
		c-16.284-0.018-29.499,13.17-29.516,29.454C299.255-1763.988,299.255-1763.977,299.255-1763.967z"/>
	<g id="Group_1492" transform="translate(1114.633 -2460.407)">
		<path id="Path_29321" fill="#C7D3DE" d="M-768.381,384.381v297.333c0.046,1.948,1.664,3.489,3.611,3.442
			c1.882-0.045,3.397-1.56,3.443-3.442V384.381c-0.044-1.909-1.618-3.426-3.527-3.4c-0.93,0.006-1.823,0.359-2.506,0.99
			c-0.017,0-0.03,0.013-0.031,0.029c0,0.001,0,0.001,0,0.002C-768.025,382.631-768.382,383.488-768.381,384.381z"/>
	</g>
	<rect id="Rectangle_337" x="339.755" y="-2081.158" fill="#C7D3DE" width="20.049" height="8.539"/>
	<path id="Path_29322" fill="#B6C2CC" d="M346.255-1792.679c2.166-0.525,3.527-0.772,3.527-0.772v-279.168
		c-2.135-2.101-2.723-4.053-2.537-5.786c-0.001-0.017,0.012-0.03,0.029-0.031c0,0,0.001,0,0.002,0
		c0.09-0.978,0.431-1.916,0.99-2.723h-8.511v8.539h6.5v279.138h-17.45c-16.309-0.007-29.538,13.207-29.55,29.516h29.64
		C306.835-1781.075,335.733-1790.111,346.255-1792.679z"/>
	<path id="Path_29323" fill="#C7D3DE" d="M455.191-2005.17v0.433c-0.019,2.801,2.236,5.086,5.037,5.105c0.023,0,0.046,0,0.068,0
		h37.406c1.192-0.003,2.344-0.431,3.249-1.207h0.031c1.129-0.983,1.783-2.403,1.795-3.9v-0.433c0.011-2.826-2.272-5.126-5.098-5.137
		c0,0-0.001,0-0.002,0h-37.381c-2.816-0.003-5.103,2.278-5.105,5.095C455.191-2005.199,455.191-2005.185,455.191-2005.17z"/>
	<path id="Path_29324" fill="#C7D3DE" d="M339.755-2010.244v9.347c-0.012,2.961,2.378,5.371,5.339,5.383c0.005,0,0.009,0,0.014,0
		h9.347c2.96-0.005,5.357-2.409,5.352-5.37c0-0.004,0-0.009,0-0.013v-9.344c0.001-2.957-2.395-5.355-5.352-5.356l0,0h-9.344
		C342.154-2015.599,339.756-2013.202,339.755-2010.244C339.755-2010.245,339.755-2010.245,339.755-2010.244z"/>
	<path id="Path_29325" fill="#C7D3DE" d="M317.788-2011.359v11.541c-0.012,2.356,1.883,4.278,4.239,4.3
		c0.562,0.009,1.12-0.097,1.64-0.309c0,0,0,0.031,0.031,0c1.585-0.681,2.618-2.235,2.63-3.96v-11.54
		c-0.011-2.353-1.927-4.25-4.279-4.239c-0.007,0-0.014,0-0.021,0c-0.62,0.004-1.231,0.141-1.794,0.4
		C318.188-2013.366,317.788-2012.41,317.788-2011.359z"/>
	<path id="Path_29326" fill="#B6C2CC" d="M339.755-2010.244v9.347c-0.012,2.961,2.378,5.371,5.339,5.383c0.005,0,0.009,0,0.014,0
		h4.672c-6.807-11.7,0-20.08,0-20.08h-4.672C342.153-2015.594,339.758-2013.199,339.755-2010.244z"/>
	<path id="Path_29327" fill="#B6C2CC" d="M317.788-2011.359v11.54c-0.012,2.355,1.883,4.278,4.239,4.3
		c0.562,0.009,1.12-0.097,1.64-0.309c-3.837-3.125-3.806-13.553-3.434-19.368C318.188-2013.37,317.788-2012.41,317.788-2011.359z"/>
	<path id="Path_29328" fill="#B6C2CC" d="M455.191-2005.17v0.433c-0.019,2.801,2.236,5.086,5.037,5.105c0.023,0,0.046,0,0.068,0
		h37.406c1.192-0.003,2.344-0.431,3.249-1.207c-6.776,1.3-21.565,2.6-27.381-9.469h-13.274c-2.816-0.003-5.103,2.278-5.105,5.096
		C455.191-2005.198,455.191-2005.185,455.191-2005.17z"/>
	<g id="Group_1494" transform="translate(1252.253 -2201.907)">
		<path id="Path_29329" fill="#DD3B2F" d="M-768.288,401.619c-0.05-0.004-0.089-0.043-0.093-0.093v-20.451
			c0.003-0.05,0.043-0.09,0.093-0.094c0.045-0.006,0.086,0.024,0.093,0.069c0.001,0.008,0.001,0.017,0,0.024v20.451
			C-768.226,401.587-768.257,401.619-768.288,401.619z"/>
	</g>
	<path id="Path_29330" fill="#9AC4F8" d="M522.731-1799.671v10.365h-77.565v-10.365c0.009-3.071,2.497-5.56,5.569-5.568h66.489
		c3.035-0.008,5.5,2.446,5.508,5.48C522.732-1799.73,522.732-1799.7,522.731-1799.671z"/>
	<path id="Path_29331" fill="#82BAFF" d="M522.731-1799.671v10.365h-77.565v-3.156c17.574,1.424,55.351,2.413,70.449-12.777h1.609
		c3.035-0.008,5.5,2.446,5.508,5.48C522.732-1799.73,522.732-1799.7,522.731-1799.671z"/>
	<path id="Path_29332" fill="#9AC4F8" d="M533.591-1783.952v19.986h-99.285v-19.986c0.01-3.414,2.775-6.179,6.188-6.188h86.912
		C530.819-1790.129,533.581-1787.365,533.591-1783.952z"/>
	<path id="Path_29333" fill="#82BAFF" d="M533.592-1783.952v19.986H512.46c3.96-4.177,5.971-8.354,4.053-12.158
		c-7.456-14.759-71.594-14.017-71.594-14.017h82.485C530.818-1790.131,533.582-1787.366,533.592-1783.952z"/>
	<path id="Path_29334" fill="#E8505B" d="M484.769-1814.308c1.848-0.029,3.687-0.278,5.476-0.741
		c7.24-1.826,14.077-6.9,15.408-14.601c1.64-9.406-5.476-16.243-11.881-21.874c-5.26-4.641-12.128-10.023-11.324-17.883
		c-0.343,4.37-1.575,8.623-3.62,12.5c-3.713,6.621-11.664,9.188-15.191,15.779c-3.249,6.095-1.423,14.699,3.187,19.614
		C471.523-1816.689,478.039-1814.073,484.769-1814.308z"/>
	<path id="Path_29335" fill="#E8505B" d="M484.367-1814.026c0.942-0.038,1.876-0.184,2.785-0.433
		c4.076-1.152,7.109-4.571,7.766-8.756c0.835-5.632-2.754-9.746-6-13.118c-2.661-2.784-6.126-6-5.724-10.736
		c-0.155,2.585-0.773,5.121-1.825,7.487c-1.856,3.96-5.878,5.507-7.673,9.468c-1.64,3.651-0.712,8.818,1.609,11.757
		C477.471-1815.561,480.831-1813.955,484.367-1814.026z"/>
	<path id="Path_29336" fill="#263238" d="M528.796-1779.249v10.704h-89.663v-10.704c-0.026-2.469,1.954-4.491,4.423-4.518
		c0.011,0,0.021,0,0.032,0h80.752C526.813-1783.737,528.8-1781.722,528.796-1779.249z"/>
	<path id="Path_29337" fill="#414D53" d="M528.796-1779.25v10.705h-12.871c1.423-2.631,1.795-5.167,0.588-7.58
		c-1.64-3.249-6.033-5.725-11.85-7.611h19.678c2.465,0.005,4.459,2.006,4.455,4.471
		C528.796-1779.261,528.796-1779.255,528.796-1779.25z"/>
	<path id="Path_29338" fill="#263238" d="M503.858-2073.671c-0.004,9.858-7.994,17.849-17.852,17.853
		c-2.117-0.008-4.215-0.406-6.188-1.176h-0.031c-0.557-0.218-1.145-0.464-1.7-0.743c-4.027,5.511-11.76,6.714-17.271,2.687
		c-5.511-4.027-6.714-11.76-2.687-17.271c0.426-0.583,0.903-1.128,1.424-1.628c-2.44-2.511-3.806-5.874-3.806-9.375
		c0.003-7.065,5.374-12.972,12.407-13.645c-0.223-0.974-0.337-1.97-0.34-2.97c-0.004-3.505,1.427-6.859,3.96-9.282
		c-3.664-1.64-6.034-5.268-6.064-9.282c0.008-5.577,4.536-10.094,10.114-10.086c0.001,0,0.001,0,0.002,0
		c0.812-0.001,1.622,0.093,2.413,0.278c5.409,1.289,8.75,6.718,7.461,12.127c-0.324,1.357-0.925,2.633-1.768,3.745
		c6.908,1.74,11.098,8.752,9.357,15.661c-0.551,2.186-1.665,4.189-3.231,5.811C498.139-2089.141,503.873-2081.954,503.858-2073.671z
		"/>
	<path id="Path_29363" fill="#263238" d="M493.68-2148.019c3.708,0,6.714,3.006,6.714,6.714s-3.006,6.714-6.714,6.714
		c-3.708,0-6.714-3.006-6.714-6.714l0,0C486.966-2145.013,489.972-2148.019,493.68-2148.019z"/>
	<path id="Path_29339" fill="#414D53" d="M503.859-2073.672c-0.004,9.857-7.994,17.848-17.852,17.852
		c-2.117-0.008-4.215-0.406-6.188-1.176c22.029-16.119,0-31.931,0-31.931c4.845-2.364,7.689-7.51,7.116-12.871
		c-0.712-5.971-9.87-9.281-9.87-9.281c6.683-5.94,3.249-13.8,1.207-17.3c5.409,1.288,8.749,6.718,7.46,12.127
		c-0.323,1.357-0.925,2.632-1.768,3.744c6.909,1.741,11.098,8.753,9.357,15.661c-0.551,2.187-1.665,4.189-3.231,5.812
		C498.157-2089.15,503.861-2081.956,503.859-2073.672z"/>
	<path id="Path_29340" fill="#414D53" d="M494.67-2147.926c0.961,1.181,1.485,2.655,1.485,4.178c0.003,3.704-2.997,6.71-6.702,6.714
		c-0.004,0-0.008,0-0.012,0c-0.34,0-0.681-0.063-1.021-0.093c2.307,2.893,6.522,3.368,9.416,1.062s3.369-6.522,1.062-9.415
		c-1.051-1.318-2.561-2.192-4.228-2.447V-2147.926z"/>
	<g id="Group_1395" transform="translate(1273.835 -2338.621)">
		<path id="Path_29013" fill="#E8505B" d="M-683.629,487.239l-41.763-41.899l21.02-38.582c21.02-26.828,65.41-25.168,65.41-25.168
			c21.931-1.507,43.965-0.159,65.549,4.01c35.264,6.914,32.5,30.285,32.5,30.285l4.7,86.568l5.117,70.389l-130.129,2.627
			l-22.4-88.229"/>
		<path id="Path_29014" fill="#E8505B" d="M-613.378,571.315l-116.577,1.383c-28.073,0.277-46.741-28.764-34.71-54.07l49.922-92.513
			l45.359,30.7l-30.978,64.3l94.451,1.66L-613.378,571.315z"/>
		<path id="Path_29015" fill="#E8505B" d="M-545.064,401.638l93.621,144.511l-54.624,3.601c0,0-32.636-51.443-31.806-50.337
			C-536.628,501.344-545.064,401.638-545.064,401.638z"/>
		<path id="Path_29016" fill="#E8505B" d="M-687.223,493.462"/>
		<g id="Group_1378" transform="translate(81.018 17.615)">
			<path id="Path_29017" fill="#263238" d="M-752.893,447.498c0.012-0.235,0.059-0.469,0.138-0.69
				c0.139-0.554,0.277-1.245,0.553-2.074c0.415-1.8,1.106-4.425,1.659-7.744c0.819-3.835,1.421-7.713,1.8-11.616
				c0.554-4.731,0.554-9.512,0-14.244c-0.725-4.7-2.369-9.211-4.84-13.275c-2.001-3.346-4.316-6.493-6.914-9.4
				c-1.777-1.956-3.671-3.803-5.67-5.532c-1.383-1.244-2.213-1.8-2.213-1.936c0.238,0.125,0.469,0.264,0.691,0.415
				c0.414,0.276,0.968,0.691,1.658,1.245c2.119,1.59,4.066,3.397,5.809,5.393c2.758,2.841,5.171,5.995,7.19,9.4
				c2.458,4.183,4.145,8.772,4.979,13.552c0.58,4.779,0.534,9.614-0.138,14.382c-0.554,4.425-1.245,8.3-1.937,11.616
				c-0.69,3.316-1.383,5.946-1.936,7.744c-0.144,0.717-0.376,1.414-0.691,2.074C-752.751,447.044-752.798,447.28-752.893,447.498z"
				/>
		</g>
		<g id="Group_1379" transform="translate(67.743 89.11)">
			<path id="Path_29018" fill="#263238" d="M-743.351,380.982c0,0-0.276,0.83-0.83,2.074c-0.553,1.383-1.383,3.181-2.488,5.531
				c-2.074,4.7-5.117,11.2-8.574,18.255c-3.457,7.054-6.776,13.413-9.127,17.977c-1.245,2.213-2.213,4.149-2.9,5.393
				c-0.687,1.244-1.106,1.937-1.106,1.937s0.277-0.691,0.968-2.074c0.691-1.383,1.659-3.181,2.766-5.393l8.989-17.979
				c3.457-7.053,6.5-13.414,8.712-18.116c1.106-2.213,1.937-4.01,2.628-5.531C-744.043,382.341-743.721,381.649-743.351,380.982z"/>
		</g>
		<g id="Group_1380" transform="translate(41.191 139.723)">
			<path id="Path_29019" fill="#263238" d="M-654.57,431.594v-0.968c0-0.691,0.138-1.521,0.276-2.766
				c0.276-2.489,0.691-5.946,1.106-10.372c0.968-8.989,2.489-21.573,4.149-36.37l0.276,0.415h-34.434
				c-23.509,0-44.805-0.138-60.294-0.138c-7.606,0-13.967-0.139-18.254-0.139l0,0c4.425,0,10.648,0,18.254-0.138
				c15.487,0,36.785,0,60.294-0.138h34.849v0.415c-1.8,14.8-3.318,27.381-4.425,36.369c-0.553,4.426-0.968,7.883-1.383,10.372
				c-0.138,1.106-0.277,2.074-0.415,2.767c-0.032,0.232-0.078,0.463-0.138,0.69C-654.57,431.456-654.57,431.594-654.57,431.594z"/>
		</g>
		<g id="Group_1381" transform="translate(49.489 124.901)">
			<path id="Path_29020" fill="#263238" d="M-749.159,397.188c-0.138,0-0.83-1.106-2.351-2.9c-1.853-2.326-3.938-4.458-6.223-6.36
				c-2.291-1.915-4.743-3.627-7.329-5.117c-1.936-1.106-3.319-1.659-3.319-1.8c0-0.142,1.383,0.276,3.457,1.383
				c2.74,1.322,5.297,2.996,7.606,4.978c2.334,1.954,4.424,4.183,6.223,6.639C-749.712,395.943-749.021,397.188-749.159,397.188z"/>
		</g>
		<g id="Group_1382" transform="translate(226.774 31.444)">
			<path id="Path_29021" fill="#263238" d="M-761.052,499.772c-0.105-0.406-0.152-0.826-0.138-1.245
				c-0.138-0.83-0.276-1.937-0.415-3.457c-0.277-3.042-0.691-7.329-1.245-12.723c-0.968-10.648-2.074-25.583-3.042-41.9
				s-1.66-31.253-2.075-42.04c-0.138-5.393-0.275-9.68-0.415-12.723v-4.7c0.016,0.418,0.062,0.834,0.139,1.245
				c0,0.83,0.138,2.074,0.138,3.457c0.138,3.042,0.415,7.468,0.553,12.723c0.554,10.787,1.245,25.583,2.213,41.9
				c0.969,16.316,1.937,31.253,2.767,41.899c0.415,5.255,0.691,9.681,0.968,12.724c0.138,1.383,0.138,2.628,0.276,3.457
				C-761.182,498.836-761.088,499.301-761.052,499.772z"/>
		</g>
		<g id="Group_1383" transform="translate(114.899 34.071)">
			<path id="Path_29022" fill="#E0E0E0" d="M-753.308,418.596c0,0,0-0.691,0.138-1.937c0.139-1.383,0.415-3.042,0.691-5.255
				c0.553-4.563,1.383-10.786,2.351-18.116l0.554,0.277c-2.767,1.936-5.809,4.01-8.989,6.223c-3.182,2.213-6.223,4.425-9.127,6.361
				l-0.691,0.415l0.139-0.83c1.105-7.191,2.073-13.414,2.766-17.839c0.415-2.074,0.691-3.872,0.83-5.117
				c0.277-1.245,0.277-1.8,0.415-1.8c0,0,0,0.69-0.138,1.936c-0.139,1.245-0.415,3.042-0.691,5.255
				c-0.691,4.564-1.521,10.786-2.489,17.979l-0.553-0.277c2.766-1.936,5.946-4.148,9.127-6.36c3.181-2.213,6.223-4.287,8.989-6.224
				l0.69-0.415l-0.138,0.83c-1.106,7.191-1.936,13.414-2.627,17.979c-0.277,2.213-0.553,3.872-0.83,5.255
				C-753.031,417.904-753.169,418.596-753.308,418.596z"/>
		</g>
		<g id="Group_1384" transform="translate(146.264 57.58)">
			<path id="Path_29023" fill="#E0E0E0" d="M-732.538,400.618c-0.505-0.414-0.968-0.877-1.383-1.383
				c-0.968-0.968-2.074-2.213-3.6-3.872c-3.182-3.318-7.468-8.021-12.309-13.414l0.554-0.138c-0.277,3.457-0.554,7.053-0.969,10.925
				c-0.276,3.872-0.69,7.606-0.968,11.063v0.83l-0.553-0.554c-4.84-5.393-8.989-10.1-12.031-13.552
				c-1.383-1.659-2.628-2.899-3.457-4.01c-0.83-0.968-1.245-1.383-1.105-1.521c0.505,0.415,0.968,0.878,1.383,1.384
				c0.968,0.968,2.074,2.213,3.6,3.872c3.042,3.318,7.329,8.021,12.169,13.413l-0.553,0.139c0.276-3.457,0.553-7.191,0.968-11.063
				c0.276-3.872,0.691-7.468,0.969-10.925v-0.83l0.553,0.553c4.84,5.394,9.127,10.101,12.169,13.553
				c1.383,1.659,2.628,2.899,3.457,4.01C-732.953,400.065-732.538,400.618-732.538,400.618z"/>
		</g>
		<g id="Group_1385" transform="translate(193.723 75.419)">
			<path id="Path_29024" fill="#E0E0E0" d="M-753.86,380.981c0,0-0.276,0.554-0.969,1.66c-0.691,1.107-1.658,2.627-2.766,4.425
				c-2.489,3.872-5.946,9.127-9.818,15.351l-0.276-0.554c3.318-0.553,7.053-1.244,10.786-1.8c3.871-0.69,7.468-1.245,10.925-1.8
				l0.83-0.138l-0.415,0.69c-4.01,6.085-7.606,11.2-10.101,15.073c-1.245,1.8-2.213,3.181-2.899,4.287
				c-0.692,0.968-1.106,1.521-1.106,1.521s0.276-0.553,0.968-1.658c0.692-1.106,1.66-2.628,2.767-4.426
				c2.489-3.871,5.946-9.127,9.817-15.212l0.276,0.554c-3.457,0.553-7.052,1.245-10.925,1.936c-3.734,0.691-7.468,1.245-10.786,1.8
				l-0.83,0.139l0.415-0.691c4.01-6.085,7.468-11.34,10.1-15.212c1.245-1.8,2.213-3.319,2.9-4.287
				C-754.275,381.535-753.86,380.981-753.86,380.981z"/>
		</g>
		<g id="Group_1386" transform="translate(158.875 102.247)">
			<path id="Path_29025" fill="#E0E0E0" d="M-753.861,380.981c0,0-0.275,0.553-0.968,1.659c-0.692,1.105-1.66,2.628-2.766,4.425
				c-2.489,3.872-5.946,9.127-9.818,15.351l-0.277-0.554c3.319-0.553,7.054-1.245,10.786-1.8c3.872-0.691,7.468-1.245,10.925-1.8
				l0.83-0.138l-0.415,0.69c-4.01,6.085-7.605,11.2-10.1,15.073c-1.245,1.8-2.213,3.181-2.9,4.287
				c-0.69,0.968-1.105,1.521-1.105,1.521s0.276-0.553,0.968-1.659c0.691-1.105,1.659-2.628,2.766-4.425
				c2.489-3.872,5.946-9.127,9.818-15.212l0.277,0.553c-3.457,0.554-7.054,1.245-10.926,1.937c-3.733,0.691-7.468,1.245-10.785,1.8
				l-0.83,0.138l0.415-0.69c4.01-6.085,7.468-11.34,10.095-15.212c1.245-1.8,2.213-3.319,2.9-4.287
				C-754.67,382.043-754.297,381.487-753.861,380.981z"/>
		</g>
		<g id="Group_1387" transform="translate(234.242 75.004)">
			<path id="Path_29026" fill="#E0E0E0" d="M-753.861,380.981c0,0-0.277,0.554-0.968,1.659c-0.691,1.106-1.66,2.628-2.767,4.425
				c-2.488,3.872-5.945,9.127-9.817,15.351l-0.276-0.554c3.319-0.553,7.053-1.244,10.786-1.8c3.872-0.69,7.468-1.245,10.925-1.8
				l0.83-0.138l-0.415,0.69c-4.01,6.085-7.605,11.2-10.1,15.073c-1.245,1.8-2.213,3.181-2.9,4.287
				c-0.69,0.968-1.105,1.521-1.105,1.521s0.276-0.553,0.968-1.659c0.69-1.107,1.659-2.627,2.766-4.426
				c2.489-3.872,5.946-9.127,9.818-15.212l0.276,0.554c-3.457,0.553-7.054,1.244-10.926,1.936c-3.733,0.691-7.468,1.245-10.786,1.8
				l-0.829,0.139l0.414-0.691c4.011-6.085,7.469-11.34,10.101-15.212c1.245-1.8,2.213-3.319,2.899-4.287
				C-754.414,381.535-753.999,380.981-753.861,380.981z"/>
		</g>
		<g id="Group_1388" transform="translate(57.924 52.878)">
			<path id="Path_29027" fill="#E0E0E0" d="M-753.861,380.981c0,0-0.277,0.554-0.968,1.659c-0.691,1.106-1.659,2.627-2.766,4.425
				c-2.489,3.872-5.946,9.127-9.818,15.351l-0.277-0.554c3.319-0.553,7.053-1.244,10.786-1.8c3.872-0.69,7.468-1.245,10.925-1.8
				l0.829-0.138l-0.414,0.69c-4.01,6.085-7.606,11.2-10.101,15.073c-1.245,1.8-2.213,3.181-2.9,4.287
				c-0.691,0.968-1.106,1.521-1.106,1.521s0.277-0.553,0.968-1.658c0.691-1.106,1.659-2.627,2.766-4.426
				c2.489-3.871,5.946-9.127,9.818-15.212l0.277,0.554c-3.457,0.553-7.053,1.245-10.925,1.936c-3.734,0.691-7.468,1.245-10.786,1.8
				l-0.83,0.139l0.415-0.691c4.01-6.085,7.468-11.34,10.095-15.212c1.245-1.8,2.213-3.319,2.9-4.287
				C-754.276,381.535-753.861,380.981-753.861,380.981z"/>
		</g>
		<g id="Group_1389" transform="translate(17.821 153.414)">
			<path id="Path_29028" fill="#E0E0E0" d="M-768.381,383.882c0,0,0.415,0.415,1.245,1.383c0.83,0.968,1.936,2.351,3.319,4.01
				c2.9,3.601,6.914,8.437,11.478,14.105l-0.553,0.138c0.553-3.319,0.968-7.053,1.521-10.786c0.553-3.872,1.106-7.605,1.659-10.925
				l0.138-0.83l0.553,0.691c4.425,5.67,8.3,10.647,11.2,14.243c1.245,1.66,2.351,3.182,3.181,4.149
				c0.691,0.968,1.106,1.521,1.106,1.521s-0.415-0.415-1.245-1.384c-0.83-0.968-1.936-2.351-3.319-4.01
				c-2.9-3.6-6.776-8.436-11.34-14.104l0.553-0.139c-0.553,3.457-1.106,7.054-1.659,10.925c-0.553,3.734-1.106,7.469-1.66,10.786
				l-0.138,0.83l-0.553-0.553c-4.564-5.67-8.436-10.648-11.34-14.244c-1.383-1.659-2.351-3.181-3.181-4.148
				C-768.104,384.438-768.381,383.882-768.381,383.882z"/>
		</g>
		<g id="Group_1390" transform="translate(108.123 89.325)">
			<path id="Path_29029" fill="#E0E0E0" d="M-733.809,381.042c0,0-0.69,0.139-1.936,0.277c-1.383,0.138-3.042,0.277-5.255,0.415
				c-4.563,0.277-10.925,0.83-18.116,1.383l0.277-0.553c2.488,2.351,5.117,4.84,8.021,7.468c2.767,2.627,5.531,5.255,8.021,7.606
				l0.553,0.553h-0.83c-7.191,0.415-13.552,0.691-18.116,0.968c-2.213,0.139-3.872,0.139-5.255,0.277h-1.936
				c0,0,0.691-0.138,1.936-0.277c1.383-0.138,3.042-0.276,5.255-0.415c4.564-0.276,10.787-0.69,18.116-1.245l-0.277,0.554
				c-2.488-2.352-5.255-4.979-8.021-7.606s-5.532-5.117-7.883-7.468l-0.553-0.553h0.829c7.329-0.415,13.553-0.83,18.116-1.106
				c2.213-0.138,3.872-0.138,5.255-0.277C-734.501,381.042-733.809,380.904-733.809,381.042z"/>
		</g>
		<g id="Group_1391" transform="translate(111.995 155.903)">
			<path id="Path_29030" fill="#E0E0E0" d="M-768.38,384.162c0.477,0.401,0.896,0.867,1.244,1.383
				c0.83,0.969,2.074,2.352,3.457,4.011c3.042,3.457,7.054,8.3,11.755,13.967l-0.554,0.138c0.415-3.318,0.83-7.053,1.383-10.786
				c0.554-3.872,0.969-7.605,1.384-11.063l0.138-0.83l0.553,0.553c4.564,5.67,8.574,10.511,11.479,14.105
				c1.383,1.659,2.488,3.042,3.318,4.148c0.691,0.969,1.106,1.521,1.106,1.521s-0.415-0.415-1.245-1.383
				c-0.83-0.969-1.936-2.352-3.457-4.011c-2.9-3.457-6.914-8.3-11.616-13.828l0.554-0.139c-0.415,3.457-0.969,7.191-1.384,11.063
				c-0.553,3.733-0.968,7.468-1.383,10.786l-0.138,0.829l-0.553-0.553c-4.7-5.67-8.712-10.51-11.616-14.104
				c-1.383-1.659-2.489-3.043-3.319-4.149C-767.965,384.716-768.38,384.162-768.38,384.162z"/>
		</g>
		<g id="Group_1392" transform="translate(22.661 107.917)">
			<path id="Path_29031" fill="#E0E0E0" d="M-733.809,380.981c0,0-0.691,0.139-1.936,0.277c-1.383,0.138-3.042,0.277-5.255,0.415
				c-4.564,0.276-10.925,0.83-18.116,1.383l0.277-0.553c2.489,2.351,5.117,4.84,8.021,7.468c2.766,2.628,5.532,5.255,8.021,7.605
				l0.553,0.554h-0.83c-7.191,0.415-13.552,0.69-18.116,0.968c-2.213,0.138-3.872,0.138-5.255,0.277h-1.936
				c0,0,0.691-0.139,1.936-0.277c1.383-0.138,3.042-0.277,5.255-0.415c4.563-0.277,10.786-0.691,18.116-1.245l-0.277,0.553
				c-2.489-2.351-5.255-4.978-8.021-7.605c-2.766-2.628-5.531-5.117-7.882-7.468l-0.553-0.554h0.83
				c7.329-0.415,13.552-0.83,18.116-1.105c2.213-0.138,3.872-0.138,5.255-0.277H-733.809z"/>
		</g>
		<g id="Group_1393" transform="translate(69.679 157.424)">
			<path id="Path_29032" fill="#E0E0E0" d="M-733.809,380.981c0,0-0.691,0.139-1.937,0.277c-1.383,0.138-3.042,0.277-5.255,0.415
				c-4.563,0.277-10.925,0.83-18.116,1.383l0.276-0.553c2.489,2.351,5.117,4.84,8.021,7.468c2.766,2.628,5.531,5.255,8.021,7.606
				l0.553,0.553h-0.83c-7.19,0.415-13.552,0.691-18.116,0.968c-2.211,0.139-3.872,0.139-5.254,0.277h-1.935
				c0,0,0.691-0.138,1.936-0.277c1.383-0.138,3.042-0.276,5.255-0.415c4.563-0.276,10.787-0.69,18.115-1.245l-0.276,0.554
				c-2.489-2.352-5.255-4.979-8.021-7.606c-2.766-2.628-5.53-5.117-7.883-7.468l-0.553-0.553h0.83
				c7.329-0.415,13.552-0.83,18.116-1.106c2.213-0.138,3.872-0.138,5.255-0.277H-733.809z"/>
		</g>
		<g id="Group_1394" transform="translate(175.884 31.444)">
			<path id="Path_29033" fill="#E0E0E0" d="M-733.808,380.982c0,0-0.691,0.138-1.937,0.276c-1.383,0.139-3.042,0.277-5.255,0.415
				c-4.563,0.277-10.925,0.83-18.116,1.384l0.277-0.554c2.489,2.352,5.117,4.84,8.021,7.469c2.767,2.627,5.532,5.255,8.021,7.605
				l0.553,0.553h-0.83c-7.19,0.415-13.552,0.691-18.116,0.969c-2.213,0.138-3.871,0.138-5.255,0.276h-1.936
				c0,0,0.691-0.138,1.936-0.276c1.384-0.139,3.042-0.277,5.256-0.415c4.563-0.277,10.785-0.691,18.115-1.245l-0.276,0.553
				c-2.489-2.351-5.255-4.978-8.021-7.606c-2.766-2.628-5.532-5.116-7.883-7.468l-0.553-0.553h0.83
				c7.329-0.415,13.552-0.83,18.116-1.106c2.213-0.138,3.871-0.138,5.255-0.276H-733.808z"/>
		</g>
	</g>
	<g id="Group_1399" transform="translate(1429.667 -2189.978)">
		<path id="Path_29034" fill="#FFBE9D" d="M-765.339,389.762c0,0,23.231-6.638,30.977-8.712c3.042-0.83,15.9,5.946,24.754,11.616
			c0,0,12.169,7.191,11.2,9.542c-1.105,2.489-5.532,1.937-12.723-1.383c0,0,2.489,7.329-2.352,7.191c0,0,2.489,7.882-2.213,8.712
			c-4.563,0.83-5.67-9.266-9.817-9.819c-4.011-0.553-12.446-1.106-12.446-1.106s-7.053,11.616-12.446,12.446
			c-5.393,0.83-17.976-0.69-17.976-0.69L-765.339,389.762z"/>
		<g id="Group_1396" transform="translate(42.488 10.078)">
			
				<ellipse id="Ellipse_370" transform="matrix(-0.8461 -0.5331 0.5331 -0.8461 -1611.8141 305.2122)" fill="#EB996E" cx="-761.842" cy="385.313" rx="7.467" ry="0.415"/>
		</g>
		<g id="Group_1397" transform="translate(41.317 14.504)">
			
				<ellipse id="Ellipse_371" transform="matrix(-0.908 -0.419 0.419 -0.908 -1612.6006 415.5303)" fill="#EB996E" cx="-760.674" cy="384.834" rx="8.297" ry="0.415"/>
		</g>
		<g id="Group_1398" transform="translate(43.806 25.373)">
			
				<ellipse id="Ellipse_372" transform="matrix(-0.9907 -0.1359 0.1359 -0.9907 -1571.0715 656.9987)" fill="#EB996E" cx="-763.118" cy="382.106" rx="5.255" ry="0.415"/>
		</g>
	</g>
	<g id="Group_1430" transform="translate(1383.186 -2488.141)">
		<g id="Group_1424">
			<path id="Path_29035" fill="#263238" d="M-749.142,447.995c0.497,1.856-0.091,3.834-1.521,5.117
				c-1.488,1.208-3.549,1.425-5.256,0.553c-3.181-1.659-3.6-5.946-2.899-9.399c0.553-3.457,1.8-7.191,0.275-10.372
				c-1.105-2.489-3.6-4.011-5.393-5.946c-3.366-3.435-4.95-8.236-4.287-13c0.798-4.771,4.225-8.683,8.85-10.1
				c4.564-1.245,10.372,0.138,13.829-3.182c2.489-2.489,2.628-6.36,4.564-9.265c3.042-4.564,9.4-5.255,14.659-4.425
				c5.393,0.69,10.786,2.488,16.041,1.105c4.425-1.105,8.021-4.148,12.03-6.085c9.253-4.006,20.016-1.919,27.101,5.255
				c6.775,7.054,8.3,18.531,3.872,27.243c-1.543,3.202-4.127,5.786-7.329,7.329"/>
			<g id="Group_1415" transform="translate(17.717 27.951)">
				<g id="Group_1414">
					<g id="Group_1413">
						<g id="Group_1400">
							<path id="Path_29036" fill="#FFBE9D" d="M-740.169,534.269L-740.169,534.269c14.781-0.041,26.731-12.057,26.69-26.839
								c0-0.042-0.001-0.084-0.001-0.127l-0.415-25.444c0,0,21.3-2.074,22.818-23.232c1.383-21.158,0.415-69.974,0.415-69.974l0,0
								c-23.92-11.862-52.386-9.853-74.4,5.255l-3.319,2.213l1.659,111.875c0.076,14.587,11.963,26.35,26.55,26.273
								C-740.171,534.269-740.17,534.269-740.169,534.269z"/>
						</g>
						<g id="Group_1404" transform="translate(65.523 35.722)">
							<g id="Group_1401" transform="translate(3.725 3.755)">
								<path id="Path_29037" fill="#263238" d="M-765.581,387.343c-3.734-0.691-3.734-5.532,0-6.361h0.553
									c3.734,0.691,3.734,5.532,0,6.361H-765.581z"/>
							</g>
							<g id="Group_1403">
								<g id="Group_1402">
									<path id="Path_29038" fill="#263238" d="M-757.707,384.321c-0.415,0.415-2.351-1.383-5.255-1.521
										c-2.9-0.276-5.117,1.245-5.393,0.83c-0.139-0.138,0.276-0.83,1.245-1.521c1.258-0.852,2.772-1.243,4.286-1.106
										c1.518,0.13,2.961,0.708,4.149,1.659C-757.845,383.496-757.567,384.184-757.707,384.321z"/>
								</g>
							</g>
						</g>
						<g id="Group_1408" transform="translate(33.716 36.552)">
							<g id="Group_1405" transform="translate(2.706 1.659)">
								<circle id="Ellipse_373" fill="#263238" cx="-764.148" cy="385.215" r="3.042"/>
							</g>
							<g id="Group_1407">
								<g id="Group_1406">
									<path id="Path_29039" fill="#263238" d="M-757.707,384.321c-0.415,0.415-2.352-1.383-5.255-1.521
										c-2.9-0.276-5.117,1.245-5.394,0.83c-0.138-0.138,0.277-0.83,1.245-1.521c1.259-0.852,2.773-1.243,4.287-1.106
										c1.517,0.13,2.961,0.708,4.149,1.659C-757.844,383.496-757.568,384.184-757.707,384.321z"/>
								</g>
							</g>
						</g>
						<g id="Group_1410" transform="translate(54.426 39.199)">
							<g id="Group_1409">
								<path id="Path_29040" fill="#263238" d="M-768.045,406.428c0-0.277,1.8-0.553,4.7-0.691c0.83,0,1.383-0.138,1.521-0.553
									c0.021-0.759-0.121-1.513-0.415-2.213c-0.69-1.936-1.245-4.01-1.936-6.085c-2.767-8.574-4.563-15.765-4.149-15.9
									c0.414-0.135,3.042,6.776,5.67,15.351c0.691,2.074,1.245,4.148,1.8,6.085c0.453,0.997,0.551,2.12,0.276,3.181
									c-0.241,0.581-0.763,0.999-1.383,1.106c-0.407,0.101-0.826,0.146-1.245,0.138
									C-766.247,406.842-768.045,406.705-768.045,406.428z"/>
							</g>
						</g>
						<g id="Group_1411" transform="translate(44.841 67.412)">
							<path id="Path_29041" fill="#FFFFFF" d="M-768.14,380.981c4.446,2.312,9.194,3.987,14.105,4.979c0,0-3.734,5.255-9.68,2.627
								C-769.938,385.822-768.14,380.981-768.14,380.981z"/>
						</g>
						<g id="Group_1412" transform="translate(27.243 91.059)">
							<path id="Path_29042" fill="#EB996E" d="M-741.138,390.382c0,0-13.414,0.415-27.243-9.4c0,0,5.67,15.627,26.966,14.8
								L-741.138,390.382z"/>
						</g>
					</g>
				</g>
			</g>
			<path id="Path_29043" fill="#263238" d="M-672.945,421.86c0,0-12.723,6.5-29.732-1.521c-11.063-5.255-24.062-7.744-26.828-5.393
				c-2.766,2.213-3.181,13.69-13.967,17.147c0,0,1.106,21.711-7.468,21.021c-8.712-0.553-3.872-34.3-3.872-34.3l20.882-10.786
				l22.956-4.84l21.85,2.627l16.871,4.287L-672.945,421.86z"/>
			<g id="Group_1419" transform="translate(4.438 64.144)">
				<g id="Group_1416">
					<path id="Path_29044" fill="#FFBE9D" d="M-753.719,381.915c-0.415-0.139-14.383-5.117-14.658,9.399
						c-0.276,14.518,14.244,11.894,14.382,11.479C-753.995,402.382-753.719,381.915-753.719,381.915z"/>
				</g>
				<g id="Group_1418" transform="translate(3.737 4.529)">
					<g id="Group_1417">
						<path id="Path_29045" fill="#EB996E" d="M-762.158,392.598c-0.238,0.125-0.469,0.264-0.691,0.415
							c-0.628,0.212-1.308,0.212-1.936,0c-1.521-0.554-2.767-3.042-2.767-5.671c-0.037-1.251,0.249-2.491,0.83-3.6
							c0.249-0.947,0.989-1.688,1.937-1.936c0.604-0.134,1.224,0.147,1.521,0.69c0.08,0.223,0.126,0.455,0.139,0.691
							c0.192-0.232,0.291-0.528,0.276-0.83c-0.074-0.374-0.269-0.714-0.553-0.968c-0.396-0.301-0.887-0.448-1.383-0.415
							c-1.223,0.184-2.238,1.039-2.627,2.213c-0.628,1.244-0.959,2.616-0.969,4.01c0,2.9,1.521,5.67,3.601,6.361
							c0.789,0.223,1.635,0.123,2.351-0.277C-762.158,393.013-762.02,392.598-762.158,392.598z"/>
					</g>
				</g>
			</g>
			<g id="Group_1420" transform="translate(11.627 19.351)">
				<path id="Path_29046" fill="#263238" d="M-768.377,381.347c-0.138-0.138,2.352-0.83,4.979,0.138
					c2.766,0.968,4.148,3.042,3.872,3.182c-0.138,0.138-1.659-1.521-4.149-2.489C-765.193,381.666-766.777,381.387-768.377,381.347z
					"/>
			</g>
			<g id="Group_1421" transform="translate(19.857 11.007)">
				<path id="Path_29047" fill="#263238" d="M-767.892,380.982c0.275,0-0.139,3.042,0.414,6.638
					c0.554,3.597,2.214,6.224,2.074,6.361c-0.471-0.509-0.888-1.065-1.245-1.659c-0.734-1.436-1.247-2.975-1.521-4.563
					C-768.584,385.506-768.489,383.191-767.892,380.982z"/>
			</g>
			<g id="Group_1422" transform="translate(79.93 58.164)">
				<path id="Path_29048" fill="#263238" d="M-768.368,382.917c-0.138-0.138,0.553-0.691,1.659-1.105
					c1.555-0.549,3.191-0.83,4.84-0.83c1.664-0.031,3.315,0.299,4.84,0.968c1.106,0.553,1.8,0.968,1.659,1.245
					c-0.138,0.415-2.9-0.691-6.5-0.691C-765.321,382.226-768.225,383.332-768.368,382.917z"/>
			</g>
			<g id="Group_1423" transform="translate(47.57 55.121)">
				<path id="Path_29049" fill="#263238" d="M-768.368,382.917c-0.138-0.138,0.554-0.691,1.66-1.106
					c1.555-0.549,3.191-0.829,4.84-0.829c1.665-0.031,3.315,0.299,4.84,0.968c1.106,0.553,1.801,0.968,1.659,1.245
					c-0.138,0.415-2.899-0.691-6.5-0.691C-765.321,382.226-768.087,383.332-768.368,382.917z"/>
			</g>
		</g>
		<g id="Group_1429" transform="translate(17.03 61.206)">
			<g id="Group_1425" transform="translate(59.963 0.83)">
				<path id="Path_29050" fill="#263238" d="M-767.916,381.397v0.829c-0.012,0.786,0.034,1.572,0.139,2.352
					c-0.017,1.201,0.03,2.403,0.138,3.6c-0.022,1.594,0.211,3.181,0.69,4.7c0.621,1.829,1.663,3.487,3.042,4.84
					c1.602,1.508,3.549,2.601,5.67,3.182c1.175,0.304,2.394,0.397,3.601,0.276c1.248,0.006,2.48-0.278,3.6-0.83
					c2.46-0.916,4.55-2.617,5.946-4.84c1.355-2.096,2.031-4.559,1.936-7.053v-7.191l0.277,0.277c-7.191,0-13.414-0.138-17.977-0.138
					c-2.214,0-3.872,0-5.256-0.139h-1.383c-0.119,0.091-0.265,0.139-0.415,0.139c0,0,0.554,0,1.8-0.139c1.245,0,3.042,0,5.117-0.138
					c4.563,0,10.786-0.138,18.116-0.138h0.277v7.468c0.133,2.647-0.595,5.268-2.074,7.468c-1.541,2.321-3.764,4.108-6.361,5.117
					c-1.255,0.422-2.554,0.7-3.872,0.83c-1.26,0.137-2.534-0.005-3.733-0.415c-2.249-0.54-4.307-1.688-5.946-3.319
					c-1.41-1.462-2.494-3.205-3.181-5.117c-0.503-1.561-0.69-3.205-0.554-4.84c-0.028-1.246,0.018-2.493,0.139-3.733
					c-0.032-0.786,0.015-1.574,0.138-2.352C-767.916,381.535-767.916,381.258-767.916,381.397z"/>
			</g>
			<g id="Group_1426" transform="translate(26.083)">
				<path id="Path_29051" fill="#263238" d="M-767.916,381.397v0.83c-0.012,0.785,0.034,1.571,0.138,2.351
					c-0.016,1.201,0.03,2.403,0.139,3.6c-0.022,1.594,0.211,3.181,0.69,4.7c0.621,1.829,1.663,3.487,3.042,4.84
					c1.602,1.508,3.549,2.601,5.67,3.182c1.175,0.304,2.394,0.397,3.601,0.276c1.248,0.006,2.48-0.278,3.6-0.83
					c2.46-0.916,4.549-2.617,5.946-4.84c1.355-2.096,2.031-4.559,1.936-7.053v-7.191l0.277,0.277
					c-7.191,0-13.414-0.138-17.978-0.138c-2.213,0-3.872,0-5.255-0.139h-1.383c-0.277,0.277-0.415,0.139-0.415,0.139
					s0.553,0,1.8-0.139c1.245,0,3.042,0,5.117-0.138c4.564,0,10.786-0.138,18.116-0.138h0.277v7.468
					c0.133,2.648-0.595,5.268-2.074,7.468c-1.542,2.321-3.764,4.109-6.361,5.117c-1.255,0.422-2.554,0.701-3.872,0.83
					c-1.26,0.137-2.534-0.005-3.733-0.415c-2.25-0.539-4.308-1.688-5.947-3.319c-1.41-1.461-2.494-3.205-3.182-5.116
					c-0.502-1.562-0.689-3.206-0.553-4.841c-0.028-1.246,0.018-2.493,0.139-3.733c-0.032-0.786,0.014-1.574,0.138-2.352
					C-767.968,381.868-767.924,381.634-767.916,381.397z"/>
			</g>
			<g id="Group_1427" transform="translate(51.163 1.798)">
				<ellipse id="Ellipse_374" fill="#263238" cx="-763.541" cy="381.397" rx="4.84" ry="0.415"/>
			</g>
			<g id="Group_1428" transform="translate(0 1.895)">
				<ellipse id="Ellipse_375" fill="#263238" cx="-755.104" cy="381.436" rx="13.276" ry="0.415"/>
			</g>
		</g>
	</g>
	<path id="Path_29057" fill="#263238" d="M780.352-1881.731l-45.772,113.535h-82.835v5.117h246.567l50.332-118.652H780.352z"/>
</g>
<g>
	<g>
	</g>
	<g>
		<g>
			<path fill="#D7E8FF" d="M427.631,56.966L427.631,56.966c0-5.543-4.494-10.037-10.038-10.037h-37.425
				c-5.544,0-10.037,4.493-10.037,10.037l0,0c0,5.544,4.493,10.039,10.037,10.039h37.425
				C423.137,67.005,427.631,62.51,427.631,56.966z"/>
			<path fill="#D7E8FF" d="M721.572,16.817L721.572,16.817c0-5.543-4.494-10.037-10.037-10.037h-20.554
				c-5.544,0-10.037,4.494-10.037,10.037l0,0c0,5.543,4.493,10.037,10.037,10.037h20.554
				C717.078,26.853,721.572,22.36,721.572,16.817z"/>
			<path fill="#D7E8FF" d="M634.521,207.527c-5.544,0-10.038-4.494-10.038-10.038l0,0c0-5.542,4.494-10.037,10.038-10.037h73.344
				c5.544,0,10.037-4.494,10.037-10.037l0,0c0-5.544-4.493-10.038-10.037-10.038h-19.123h-89.791
				c-5.542,0-10.035-4.494-10.035-10.038l0,0c0-5.543,4.493-10.037,10.035-10.037h89.791h51.463c5.543,0,10.036-4.494,10.036-10.037
				l0,0c0-5.543-4.493-10.038-10.036-10.038h-41.917h-68.844c-5.542,0-10.037-4.493-10.037-10.037l0,0
				c0-5.544,4.495-10.038,10.037-10.038h68.844h24.013c5.544,0,10.038-4.494,10.038-10.037l0,0c0-5.544-4.494-10.037-10.038-10.037
				h-71.392h-74.86c-5.543,0-10.037-4.495-10.037-10.038V77.04c0-5.543,4.494-10.036,10.037-10.036h74.86h42.713
				c5.543,0,10.037-4.495,10.037-10.039l0,0c0-5.543-4.494-10.037-10.037-10.037h-42.713H621.3c-5.544,0-10.038-4.495-10.038-10.038
				l0,0c0-5.543,4.494-10.038,10.038-10.038h29.609c5.545,0,10.035-4.494,10.035-10.037l0,0c0-5.543-4.49-10.037-10.035-10.037
				H481.116c-5.544,0-10.038,4.494-10.038,10.037l0,0c0,5.543,4.494,10.037,10.038,10.037h37.026
				c5.543,0,10.037,4.495,10.037,10.038l0,0c0,5.543-4.494,10.038-10.037,10.038h-37.026h-25.245
				c-5.544,0-10.037,4.493-10.037,10.037l0,0c0,5.544,4.493,10.039,10.037,10.039h17.344c5.544,0,10.039,4.493,10.039,10.036v0.001
				c0,5.543-4.495,10.038-10.039,10.038h-35.547H331.896c-5.543,0-10.038,4.493-10.038,10.037l0,0
				c0,5.543,4.494,10.037,10.038,10.037h101.839h21.293c5.543,0,10.036,4.494,10.036,10.038l0,0c0,5.543-4.493,10.037-10.036,10.037
				h-21.293h-64.911c-5.544,0-10.038,4.494-10.038,10.038l0,0c0,5.543,4.494,10.037,10.038,10.037h74.457h41.256
				c5.546,0,10.038,4.494,10.038,10.037l0,0c0,5.544-4.492,10.038-10.038,10.038h-41.256h-19.122
				c-5.543,0-10.037,4.494-10.037,10.038l0,0c0,5.543,4.494,10.037,10.037,10.037h19.524c5.543,0,10.038,4.495,10.038,10.037l0,0
				c0,5.544-4.495,10.038-10.038,10.038h-21.041h-30.823c-5.544,0-10.037,4.494-10.037,10.037l0,0
				c0,5.543,4.493,10.038,10.037,10.038h89.297h14.223c5.544,0,10.037,4.495,10.037,10.038l0,0c0,5.544-4.493,10.036-10.037,10.036
				h-14.223H386.18c-5.544,0-10.037,4.495-10.037,10.038l0,0c0,5.543,4.493,10.037,10.037,10.037h359.664
				c5.543,0,10.038-4.494,10.038-10.037l0,0c0-5.543-4.495-10.038-10.038-10.038h-94.935h-74.86
				c-5.543,0-10.037-4.492-10.037-10.036l0,0c0-5.543,4.494-10.038,10.037-10.038h74.86h89.296c5.543,0,10.036-4.495,10.036-10.038
				l0,0c0-5.543-4.493-10.037-10.036-10.037h-30.824H634.521z"/>
		</g>
		<g>
			<g>
				<path fill="#E8505B" d="M301.371,209.119l-100.324,29.433c-20.464,6.006-36.542,21.886-42.796,42.275l-24.291,79.195h133.239
					l15.742-88.354l18.43-13.159V209.119z"/>
				<polygon fill="#770727" points="170.329,294.998 186.126,360.022 252.418,360.022 				"/>
			</g>
			<path fill="#4464C1" d="M738.497,366.604H424.789H111.081c-1.815,0-3.289-1.475-3.289-3.291l0,0c0-1.818,1.474-3.291,3.289-3.291
				h627.416c1.816,0,3.29,1.473,3.29,3.291l0,0C741.787,365.13,740.313,366.604,738.497,366.604z"/>
			<g>
				<g>
					<path fill="#82ACF9" d="M672.495,350.153V218.989c0-5.45,4.419-9.87,9.87-9.87H529.286c-7.786,0-14.1,6.314-14.1,14.099
						v122.706c0,7.785,6.313,14.099,14.1,14.099h153.079C676.914,360.022,672.495,355.605,672.495,350.153z"/>
					<path fill="#6185E0" d="M720.312,209.119h-28.523h-9.423c-5.451,0-9.87,4.42-9.87,9.87v131.164c0,5.452,4.419,9.869,9.87,9.869
						h9.423h28.523c5.451,0,9.869-4.417,9.869-9.869V218.989C730.181,213.539,725.763,209.119,720.312,209.119z"/>
					<g>
						<rect x="683.775" y="220.398" fill="#4464C1" width="27.933" height="128.344"/>
						<rect x="711.708" y="220.398" fill="#82ACF9" width="7.192" height="128.344"/>
					</g>
					<path fill="#230646" d="M697.742,263.805L697.742,263.805c-5.25,0-9.504-4.254-9.504-9.503v-11.563
						c0-5.251,4.254-9.506,9.504-9.506l0,0c5.249,0,9.503,4.255,9.503,9.506v11.563
						C707.245,259.552,702.991,263.805,697.742,263.805z"/>
				</g>
				<g>
					<path fill="#6185E0" d="M649.201,233.9h-13.835c3.894,0,7.049,3.156,7.049,7.049v31.25c0,3.895-3.155,7.049-7.049,7.049h13.835
						c3.894,0,7.05-3.154,7.05-7.049v-31.25C656.251,237.056,653.095,233.9,649.201,233.9z"/>
					<path fill="#816D9B" d="M642.415,272.199v-31.25c0-3.893-3.155-7.049-7.049-7.049H530.719h-13.835
						c-3.892,0-7.05,3.156-7.05,7.049v31.25c0,3.895,3.158,7.049,7.05,7.049h13.835h104.647
						C639.26,279.248,642.415,276.094,642.415,272.199z M633.955,270.789H525.8h-7.507v-28.43h7.507h108.155V270.789z"/>
					<rect x="525.8" y="242.359" fill="#230646" width="108.155" height="28.43"/>
					<rect x="518.293" y="242.359" fill="#5B406F" width="7.507" height="28.43"/>
				</g>
				<g>
					<g>
						<path fill="#6185E0" d="M534.774,327.753v-30.734c0-2.546,1.394-4.74,3.444-5.937c-1.017-0.593-2.184-0.955-3.444-0.955
							c-3.807,0-6.891,3.086-6.891,6.892v30.734c0,3.805,3.084,6.89,6.891,6.89c1.261,0,2.428-0.362,3.444-0.954
							C536.168,332.496,534.774,330.298,534.774,327.753z"/>
						<path fill="#230646" d="M541.663,327.753v-30.734c0-2.546-1.393-4.74-3.444-5.937c-2.051,1.196-3.444,3.391-3.444,5.937
							v30.734c0,2.545,1.394,4.743,3.444,5.936C540.271,332.496,541.663,330.298,541.663,327.753z"/>
					</g>
					<g>
						<path fill="#6185E0" d="M559.211,327.753v-30.734c0-2.546,1.396-4.74,3.446-5.937c-1.017-0.593-2.184-0.955-3.446-0.955
							c-3.803,0-6.891,3.086-6.891,6.892v30.734c0,3.805,3.088,6.89,6.891,6.89c1.263,0,2.43-0.362,3.446-0.954
							C560.606,332.496,559.211,330.298,559.211,327.753z"/>
						<path fill="#230646" d="M566.103,327.753v-30.734c0-2.546-1.395-4.74-3.445-5.937c-2.051,1.196-3.446,3.391-3.446,5.937
							v30.734c0,2.545,1.396,4.743,3.446,5.936C564.708,332.496,566.103,330.298,566.103,327.753z"/>
					</g>
					<g>
						<path fill="#6185E0" d="M583.651,327.753v-30.734c0-2.546,1.394-4.74,3.445-5.937c-1.018-0.593-2.185-0.955-3.445-0.955
							c-3.805,0-6.892,3.086-6.892,6.892v30.734c0,3.805,3.087,6.89,6.892,6.89c1.261,0,2.428-0.362,3.445-0.954
							C585.045,332.496,583.651,330.298,583.651,327.753z"/>
						<path fill="#230646" d="M590.542,327.753v-30.734c0-2.546-1.396-4.74-3.445-5.937c-2.052,1.196-3.445,3.391-3.445,5.937
							v30.734c0,2.545,1.394,4.743,3.445,5.936C589.146,332.496,590.542,330.298,590.542,327.753z"/>
					</g>
					<g>
						<path fill="#6185E0" d="M608.09,327.753v-30.734c0-2.546,1.395-4.74,3.444-5.937c-1.016-0.593-2.184-0.955-3.444-0.955
							c-3.806,0-6.89,3.086-6.89,6.892v30.734c0,3.805,3.084,6.89,6.89,6.89c1.261,0,2.429-0.362,3.444-0.954
							C609.484,332.496,608.09,330.298,608.09,327.753z"/>
						<path fill="#230646" d="M614.979,327.753v-30.734c0-2.546-1.392-4.74-3.444-5.937c-2.05,1.196-3.444,3.391-3.444,5.937v30.734
							c0,2.545,1.395,4.743,3.444,5.936C613.587,332.496,614.979,330.298,614.979,327.753z"/>
					</g>
					<g>
						<path fill="#6185E0" d="M632.528,327.753v-30.734c0-2.546,1.394-4.74,3.446-5.937c-1.019-0.593-2.185-0.955-3.446-0.955
							c-3.806,0-6.891,3.086-6.891,6.892v30.734c0,3.805,3.085,6.89,6.891,6.89c1.262,0,2.428-0.362,3.446-0.954
							C633.922,332.496,632.528,330.298,632.528,327.753z"/>
						<path fill="#230646" d="M639.419,327.753v-30.734c0-2.546-1.394-4.74-3.444-5.937c-2.053,1.196-3.446,3.391-3.446,5.937
							v30.734c0,2.545,1.394,4.743,3.446,5.936C638.025,332.496,639.419,330.298,639.419,327.753z"/>
					</g>
				</g>
				<g>
					<rect x="532.785" y="248.52" fill="#36FFFF" width="4.814" height="4.813"/>
					<polygon fill="#36FFFF" points="576.125,248.52 571.312,248.52 571.312,253.333 576.125,253.333 580.938,253.333 
						580.938,248.52 					"/>
					<polygon fill="#36FFFF" points="542.411,253.333 537.6,253.333 537.6,258.147 542.411,258.147 547.226,258.147 
						547.226,253.333 					"/>
					<polygon fill="#36FFFF" points="561.683,253.333 561.683,258.147 566.497,258.147 571.312,258.147 571.312,253.333 
						566.497,253.333 					"/>
					<rect x="614.651" y="248.52" fill="#36FFFF" width="4.812" height="4.813"/>
					<polygon fill="#36FFFF" points="605.022,253.333 605.022,258.147 609.836,258.147 614.651,258.147 614.651,253.333 
						609.836,253.333 					"/>
					<polygon fill="#36FFFF" points="585.751,253.333 580.938,253.333 580.938,258.147 585.751,258.147 590.565,258.147 
						590.565,253.333 					"/>
					<rect x="547.226" y="258.147" fill="#36FFFF" width="4.813" height="4.813"/>
					<polygon fill="#36FFFF" points="552.056,258.147 552.056,262.961 556.871,262.961 561.683,262.961 561.683,258.147 
						556.871,258.147 					"/>
					<rect x="590.565" y="258.147" fill="#36FFFF" width="4.813" height="4.813"/>
					<polygon fill="#36FFFF" points="595.396,258.147 595.396,262.961 600.209,262.961 605.022,262.961 605.022,258.147 
						600.209,258.147 					"/>
				</g>
			</g>
			<g>
				
					<rect x="284.929" y="118.467" fill="#FFFFFF" stroke="#000000" stroke-width="2.8198" stroke-miterlimit="10" width="277.755" height="216.116"/>
				<g>
					<g>
						
							<rect x="380.9" y="112.448" transform="matrix(0.2511 0.968 -0.968 0.2511 441.1104 -249.3392)" fill="#D5DEE7" width="1.573" height="95.887"/>
						<polygon fill="#D5DEE7" points="335.808,228.279 334.779,227.081 427.568,147.699 428.598,148.897 						"/>
						
							<rect x="319.998" y="212.521" transform="matrix(0.7539 0.657 -0.657 0.7539 234.196 -198.5682)" fill="#D5DEE7" width="124.281" height="1.579"/>
						<polygon fill="#D5DEE7" points="428.75,201.969 335.059,172.281 335.531,170.778 429.226,200.462 						"/>
						
							<rect x="380.659" y="218.839" transform="matrix(0.291 0.9567 -0.9567 0.291 527.3339 -174.5672)" fill="#D5DEE7" width="1.574" height="99.329"/>
						<polygon fill="#D5DEE7" points="428.476,307.663 334.784,228.279 335.802,227.078 429.495,306.454 						"/>
						<polygon fill="#D5DEE7" points="334.426,283.468 333.391,282.274 427.568,200.62 428.598,201.813 						"/>
						
							<rect x="333.164" y="239.523" transform="matrix(0.9562 0.2929 -0.2929 0.9562 87.1169 -101.2482)" fill="#D5DEE7" width="97.045" height="1.577"/>
						
							<rect x="332.383" y="294.171" transform="matrix(0.9686 0.2487 -0.2487 0.9686 85.3456 -85.4999)" fill="#D5DEE7" width="97.226" height="1.583"/>
						<polygon fill="#D5DEE7" points="335.512,228.436 335.076,226.922 427.866,200.458 428.297,201.972 						"/>
						<polygon fill="#D5DEE7" points="512.501,228.25 428.442,148.867 429.53,147.722 513.586,227.102 						"/>
						
							<rect x="426.071" y="213.657" transform="matrix(0.9548 0.2974 -0.2974 0.9548 85.0608 -130.2346)" fill="#D5DEE7" width="88.987" height="1.578"/>
						
							<rect x="470.228" y="196.845" transform="matrix(0.301 0.9536 -0.9536 0.301 558.9855 -280.7779)" fill="#D5DEE7" width="1.58" height="88.125"/>
						
							<rect x="469.774" y="209.057" transform="matrix(0.6765 0.7364 -0.7364 0.6765 348.7034 -260.2208)" fill="#D5DEE7" width="1.582" height="115.534"/>
					</g>
					<path fill="#FFFFFF" stroke="#D5DEE7" stroke-width="4.2298" stroke-miterlimit="10" d="M352.932,171.968
						c0-9.731-7.897-17.629-17.636-17.629l0,0c-9.743,0-17.636,7.898-17.636,17.629l0,0c0,9.744,7.894,17.641,17.636,17.641l0,0
						C345.034,189.609,352.932,181.712,352.932,171.968L352.932,171.968z"/>
					<path fill="#FFFFFF" stroke="#D5DEE7" stroke-width="4.2298" stroke-miterlimit="10" d="M352.932,227.677
						c0-9.745-7.897-17.636-17.636-17.636l0,0c-9.743,0-17.636,7.891-17.636,17.636l0,0c0,9.736,7.894,17.635,17.636,17.635l0,0
						C345.034,245.312,352.932,237.414,352.932,227.677L352.932,227.677z"/>
					<path fill="#FFFFFF" stroke="#D5DEE7" stroke-width="4.2298" stroke-miterlimit="10" d="M352.932,282.867
						c0-9.737-7.897-17.636-17.636-17.636l0,0c-9.743,0-17.636,7.898-17.636,17.636l0,0c0,9.741,7.894,17.636,17.636,17.636l0,0
						C345.034,300.503,352.932,292.608,352.932,282.867L352.932,282.867z"/>
					<path fill="#FFFFFF" stroke="#D5DEE7" stroke-width="4.2298" stroke-miterlimit="10" d="M539,227.677
						c0-14.338-11.618-25.956-25.953-25.956l0,0c-14.34,0-25.962,11.618-25.962,25.956l0,0c0,14.338,11.622,25.961,25.962,25.961
						l0,0C527.382,253.638,539,242.015,539,227.677L539,227.677z"/>
					<path fill="#FFFFFF" stroke="#D5DEE7" stroke-width="4.2298" stroke-miterlimit="10" d="M442.642,201.218
						c0-8.043-6.518-14.561-14.564-14.561l0,0c-8.035,0-14.563,6.518-14.563,14.561l0,0c0,8.041,6.528,14.561,14.563,14.561l0,0
						C436.124,215.778,442.642,209.259,442.642,201.218L442.642,201.218z"/>
					<path fill="#FFFFFF" stroke="#D5DEE7" stroke-width="4.2298" stroke-miterlimit="10" d="M442.642,148.293
						c0-8.039-6.518-14.557-14.564-14.557l0,0c-8.035,0-14.563,6.519-14.563,14.557l0,0c0,8.048,6.528,14.566,14.563,14.566l0,0
						C436.124,162.859,442.642,156.341,442.642,148.293L442.642,148.293z"/>
					<path fill="#FFFFFF" stroke="#D5DEE7" stroke-width="4.2298" stroke-miterlimit="10" d="M442.642,254.137
						c0-8.042-6.518-14.563-14.564-14.563l0,0c-8.035,0-14.563,6.521-14.563,14.563l0,0c0,8.043,6.528,14.562,14.563,14.562l0,0
						C436.124,268.699,442.642,262.18,442.642,254.137L442.642,254.137z"/>
					<path fill="#FFFFFF" stroke="#D5DEE7" stroke-width="4.2298" stroke-miterlimit="10" d="M442.642,307.054
						c0-8.038-6.518-14.558-14.564-14.558l0,0c-8.035,0-14.563,6.52-14.563,14.558l0,0c0,8.042,6.528,14.569,14.563,14.569l0,0
						C436.124,321.624,442.642,315.096,442.642,307.054L442.642,307.054z"/>
					<g id="music_2_">
						<path fill="#292A36" d="M329.696,162.358l0.014,0.054l-0.027-0.054v14.401c-1.022-0.366-2.317-0.29-3.456,0.215
							c-2.095,0.928-3.206,2.996-2.49,4.605c0.462,1.036,1.617,1.686,3.015,1.686c0.688,0,1.408-0.16,2.068-0.458
							c1.574-0.704,2.646-2.072,2.7-3.451h0.011v-9.82l9.491-1.588v7.237c-1.007-0.37-2.312-0.29-3.452,0.221
							c-2.086,0.925-3.204,2.994-2.494,4.592c0.463,1.04,1.617,1.689,3.011,1.689c0.689,0,1.406-0.157,2.073-0.453
							c1.577-0.712,2.643-2.074,2.707-3.453l0,0v-18.142L329.696,162.358z M331.53,168.158V166.2l9.491-1.956v2.373L331.53,168.158z
							"/>
					</g>
					<g>
						<g>
							<g>
								<path fill="#292A36" d="M335.296,223.243c-3.396,0-6.152,2.753-6.152,6.152c0,3.396,2.756,6.147,6.152,6.147
									c3.393,0,6.146-2.751,6.146-6.147C341.442,225.996,338.689,223.243,335.296,223.243z M335.296,232.213
									c-1.56,0-2.823-1.262-2.823-2.817c0-1.561,1.264-2.822,2.823-2.822c1.559,0,2.823,1.262,2.823,2.822
									C338.119,230.951,336.855,232.213,335.296,232.213z"/>
							</g>
						</g>
						<g>
							<path fill="#292A36" d="M335.296,237.001c-7.512,0-13.45-6.886-13.7-7.183c-0.208-0.246-0.208-0.606,0-0.85
								c0.25-0.298,6.188-7.179,13.7-7.179c7.507,0,13.446,6.881,13.7,7.179c0.21,0.243,0.21,0.604,0,0.85
								C348.742,230.115,342.803,237.001,335.296,237.001z M322.984,229.395c1.408,1.473,6.443,6.292,12.312,6.292
								c5.877,0,10.904-4.819,12.306-6.292c-1.406-1.479-6.439-6.294-12.306-6.294C329.428,223.101,324.393,227.917,322.984,229.395
								z"/>
						</g>
					</g>
					<g>
						<g>
							<path fill="#292A36" d="M339.773,273.492c-7.369-1.26-8.554,3.626-8.722,4.891c-0.105,0.695,0.502,4.247-0.526,6.401
								c-0.854,1.752-2.96,2.424-3.708,4.965c-0.499,1.672,0.295,3.495,1.698,4.45c1.437,0.984,3.311,0.903,4.952,0.425
								c4.871-0.731,9.188-4.218,10.899-8.848C346.025,281.302,345.474,274.488,339.773,273.492z M343.839,285.143
								c-1.822,4.919-7.506,8.952-12.731,8.899c-1.533-0.011-2.371-0.266-3.228-1.504c-0.595-0.841-0.614-1.982-0.404-2.963
								c0.3-1.432,1.952-3.003,3.05-3.915c0.693-0.971,0.944-2.094,0.993-3.268c0.104-2.547,0.132-4.861,2.086-6.778
								c1.672-1.654,3.571-2.283,5.926-1.688C344.772,274.825,345.385,280.977,343.839,285.143z"/>
							<path fill="#292A36" d="M342.618,281.162c0.006-1.079-0.015-2.128-0.457-3.12c-0.145-0.32-0.325-0.619-0.524-0.883
								c-0.67-1.209-1.782-2.17-3.218-2.244c-1.816-0.104-3.329,1.215-3.957,2.838c-0.096,0.251-0.193,0.518-0.263,0.777
								c-0.102,0.176-0.189,0.376-0.239,0.604c-0.08,0.379-0.085,0.745-0.024,1.096c0,0.127,0.006,0.253,0.009,0.385
								c0.082,1.035,0.717,1.86,1.594,2.367c0.332,0.186,0.685,0.342,1.043,0.486c0.332,0.203,0.675,0.389,1,0.604
								c0.401,0.265,0.685,0.511,0.968,0.903c0.225,0.326,0.352,0.703,0.504,1.064c0.137,0.361,0.092,0.777-0.037,1.142
								c-0.31,0.873-1.125,1.448-1.795,2.053c-0.753,0.499-1.581,0.915-2.432,1.213c-0.099,0.031-0.199,0.064-0.296,0.094
								c-0.67,0.16-1.384,0.194-2.054-0.006c-0.809-0.239-1.223-0.832-1.334-1.644c-0.107-0.758,0.539-0.897,1.119-1.013
								c0.428-0.092,0.826-0.251,1.054-0.586c0.254,0.293,0.483,0.592,0.787,0.842c0.219,0.184,0.546-0.08,0.435-0.334
								c-0.144-0.334-0.256-0.684-0.402-1.019c-0.178-0.428-0.281-0.748-0.691-0.954c-0.819-0.412-2.102,0.151-2.529,0.9
								c-0.209,0.367-0.522,0.661-0.681,1.063c-0.158,0.411-0.108,0.819-0.021,1.235c0.195,0.826,0.747,1.624,1.505,2.015
								c0.757,0.385,1.765,0.321,2.576,0.167c0.609-0.116,1.193-0.313,1.754-0.563c0.162-0.068,0.325-0.13,0.483-0.192
								c0.457-0.187,0.924-0.346,1.376-0.531c0.863-0.354,1.753-1.203,2.216-2.005c0.468-0.821,0.57-1.994-0.022-2.802
								c-0.087-0.132-0.199-0.247-0.318-0.355c-0.298-0.438-0.725-0.797-1.183-1.065c-0.715-0.413-1.526-0.627-2.282-0.967
								c-0.229-0.175-0.457-0.364-0.662-0.555c-0.644-0.59-1.12-1.653-0.824-2.524c0.208-0.618,0.918-0.979,1.451-1.274
								c0.635-0.349,1.363-0.756,1.734-1.407c0.07-0.008,0.138-0.025,0.213-0.028c0.428-0.053,0.819,0.132,1.215,0.289
								c0.366,0.144,0.802,0.203,1.203,0.163c0.323,0.327,0.604,0.724,0.808,1.181c0.388,0.868,0.304,1.776,0.394,2.703
								c0.02,0.21,0.041,0.421,0.064,0.629c-0.01,0.132-0.014,0.257-0.023,0.381c-0.041,0.574-0.125,1.151-0.214,1.723
								c-0.021,0.175,0.111,0.269,0.243,0.269l0,0c-0.039,0.206,0.281,0.294,0.352,0.09
								C342.601,283.358,342.598,282.221,342.618,281.162z M335.148,277.588c0,0.004,0.003,0.015,0.01,0.026
								c-0.017,0-0.021,0.006-0.033,0.019C335.138,277.614,335.142,277.596,335.148,277.588z"/>
						</g>
					</g>
					<path fill="#E84441" d="M433.162,143.775c-0.221,0.119-0.4,0.294-0.532,0.494l-0.242-0.423l0,0l-1.215-2.196
						c-0.148-0.27-0.489-0.359-0.752-0.217l0,0l-0.961,0.534l-0.394,0.223l0,0l-2.161,1.208c0.191,0.124,0.365,0.307,0.494,0.533
						c0.41,0.745,0.142,1.684-0.598,2.098c-0.751,0.415-1.686,0.146-2.103-0.6c-0.12-0.222-0.186-0.462-0.197-0.705l-1.692,0.947
						l0,0l-0.864,0.482l-0.965,0.531l0,0c-0.255,0.146-0.36,0.481-0.21,0.747l1.458,2.621c-0.238,0.003-0.481,0.076-0.71,0.197
						c-0.737,0.411-1.009,1.35-0.593,2.1c0.414,0.738,1.354,1.011,2.1,0.593c0.22-0.122,0.405-0.292,0.533-0.492l1.394,2.494
						c0.145,0.263,0.482,0.361,0.744,0.217l0.961-0.535v-0.002l2.556-1.423c-0.195-0.128-0.367-0.314-0.49-0.536
						c-0.416-0.74-0.145-1.685,0.6-2.098c0.746-0.416,1.685-0.146,2.099,0.597c0.127,0.225,0.19,0.467,0.195,0.708l2.557-1.426
						c0,0,0,0,0.006,0l0.958-0.54c0.265-0.138,0.358-0.479,0.211-0.742l-1.386-2.497c0.237-0.007,0.477-0.073,0.707-0.19
						c0.745-0.421,1.015-1.357,0.601-2.106C434.846,143.623,433.907,143.355,433.162,143.775z"/>
					<path fill="#295A84" d="M434.039,253.105c-0.228-0.016-0.441,0.031-0.635,0.123l0.02-0.435l0,0l0.104-2.219
						c0.014-0.271-0.198-0.501-0.464-0.514l0,0l-0.972-0.042l-0.405-0.018l0,0l-2.192-0.107c0.09,0.191,0.135,0.415,0.119,0.638
						c-0.029,0.758-0.671,1.34-1.433,1.307c-0.75-0.035-1.332-0.677-1.296-1.431c0.008-0.224,0.074-0.438,0.179-0.616l-1.721-0.084
						l0,0l-0.877-0.043l-0.973-0.041l0,0c-0.269-0.013-0.497,0.196-0.508,0.462l-0.121,2.661c-0.183-0.107-0.397-0.174-0.62-0.186
						c-0.757-0.035-1.396,0.555-1.432,1.304c-0.032,0.759,0.546,1.399,1.307,1.434c0.22,0.008,0.436-0.04,0.633-0.129l-0.117,2.531
						c-0.012,0.27,0.194,0.501,0.471,0.514l0.967,0.042h0.007l7.611,0.35l0,0l0.975,0.045c0.269,0.013,0.496-0.199,0.515-0.469
						l0.111-2.525c0.184,0.104,0.396,0.173,0.623,0.183c0.76,0.035,1.396-0.548,1.433-1.305
						C435.378,253.78,434.798,253.136,434.039,253.105z"/>
					<path fill="#6E8F31" d="M434.259,199.162l-2.104-1.511c-0.035,0.209-0.112,0.415-0.246,0.601
						c-0.443,0.614-1.298,0.753-1.913,0.307c-0.611-0.438-0.749-1.294-0.307-1.909c0.128-0.188,0.296-0.324,0.489-0.415
						l-2.109-1.519c-0.002-0.016-0.017-0.021-0.021-0.025l-0.763-0.55c-0.225-0.157-0.526-0.107-0.683,0.112l-2.094,2.892
						c-0.099-0.188-0.233-0.358-0.42-0.485c-0.612-0.445-1.465-0.308-1.909,0.307c-0.441,0.611-0.302,1.469,0.313,1.913
						c0.18,0.133,0.392,0.211,0.602,0.242L421,202.014c-0.155,0.221-0.104,0.53,0.111,0.685l7.768,5.6
						c0.224,0.156,0.525,0.104,0.682-0.11l5.598-7.771c0.158-0.219,0.111-0.525-0.11-0.677l-0.767-0.558
						C434.273,199.178,434.268,199.177,434.259,199.162z"/>
					<path fill="#F4AD16" d="M426.926,300.656l-1.804,1.872c0.202,0.059,0.395,0.166,0.56,0.324c0.54,0.521,0.561,1.394,0.034,1.937
						c-0.523,0.542-1.386,0.563-1.937,0.035c-0.162-0.158-0.271-0.346-0.345-0.548l-1.8,1.873c-0.006,0.009-0.011,0.014-0.019,0.018
						l-0.658,0.687c-0.188,0.19-0.177,0.498,0.015,0.689l2.573,2.475c-0.204,0.069-0.393,0.186-0.549,0.346
						c-0.525,0.546-0.505,1.416,0.04,1.939c0.546,0.525,1.413,0.506,1.934-0.04c0.156-0.158,0.265-0.358,0.326-0.561l2.572,2.479
						c0.197,0.184,0.507,0.177,0.687-0.013l6.646-6.901c0.182-0.189,0.176-0.505-0.016-0.691l-6.898-6.636
						c-0.199-0.188-0.506-0.182-0.691,0.01l-0.656,0.686C426.932,300.639,426.93,300.647,426.926,300.656z"/>
					<g>
						<g>
							<path fill="#F4C31C" d="M523.789,227.19c-0.479-5.818-4.851-9.898-10.707-9.898c-0.01,0-0.023,0-0.036,0
								c-0.016,0-0.023,0-0.039,0c-5.858,0-10.231,4.08-10.717,9.898c-0.236,2.856-0.282,5.436,4.405,10.937
								c0.981,1.152,1.272,3.458,1.38,4.812c0.065,0.747,3.636,1.229,4.971,1.324c1.337-0.096,4.908-0.583,4.962-1.324
								c0.111-1.354,0.401-3.659,1.381-4.812C524.08,232.626,524.028,230.047,523.789,227.19z"/>
							<path fill="#FFFFFF" d="M513.046,244.72c-0.385,0-0.729-0.24-0.849-0.604l-4.455-12.717c-0.093-0.278-0.05-0.588,0.115-0.824
								c0.172-0.233,0.442-0.378,0.737-0.378h8.899c0.291,0,0.563,0.145,0.735,0.378c0.168,0.236,0.207,0.546,0.116,0.824
								l-4.453,12.717C513.766,244.48,513.425,244.72,513.046,244.72z M509.862,231.999l3.184,9.1l3.181-9.1H509.862z"/>
							<path fill="#292A36" d="M513.046,240.588h-5.69v7.312h0.005c0.006,0.123,0.165,0.288,0.485,0.469l3.887,2.162
								c0.357,0.199,0.836,0.303,1.313,0.303c0.475,0,0.954-0.104,1.314-0.303l3.884-2.162c0.313-0.181,0.477-0.346,0.49-0.469l0,0
								v-7.312H513.046z"/>
							<path fill="#F4C31C" d="M514.771,213.136c0,0.952-0.771,1.732-1.725,1.732l0,0c-0.956,0-1.729-0.78-1.729-1.732v-5.321
								c0-0.951,0.772-1.727,1.729-1.727l0,0c0.954,0,1.725,0.775,1.725,1.727V213.136z"/>
							<g>
								<path fill="#F4C31C" d="M503.099,215.932c0.678,0.674,0.678,1.771,0,2.45l0,0c-0.677,0.668-1.764,0.668-2.437,0
									l-3.765-3.768c-0.678-0.673-0.678-1.771,0-2.442l0,0c0.67-0.675,1.767-0.675,2.438,0L503.099,215.932z"/>
								<path fill="#F4C31C" d="M522.985,215.932c-0.673,0.674-0.673,1.771,0,2.45l0,0c0.682,0.668,1.771,0.668,2.441,0l3.763-3.768
									c0.678-0.673,0.678-1.771,0-2.442l0,0c-0.67-0.675-1.76-0.675-2.437,0L522.985,215.932z"/>
							</g>
							<g>
								<path fill="#F4C31C" d="M497.747,223.954c0.954,0,1.722,0.78,1.722,1.728l0,0c0,0.962-0.768,1.73-1.722,1.73h-5.328
									c-0.953,0-1.729-0.769-1.729-1.73l0,0c0-0.947,0.776-1.728,1.729-1.728H497.747z"/>
								<path fill="#F4C31C" d="M533.67,223.954c0.954,0,1.729,0.78,1.729,1.728l0,0c0,0.962-0.775,1.73-1.729,1.73h-5.322
									c-0.961,0-1.727-0.769-1.727-1.73l0,0c0-0.947,0.766-1.728,1.727-1.728H533.67z"/>
							</g>
						</g>
						<g>
							<path fill="#383B47" d="M518.729,242.811h-5.684h-5.686c-0.401,0-0.729,0.328-0.729,0.732c0,0.405,0.327,0.735,0.729,0.735
								h5.686h5.684c0.401,0,0.729-0.33,0.729-0.735C519.458,243.139,519.131,242.811,518.729,242.811z"/>
							<path fill="#383B47" d="M518.729,245.857h-5.684h-5.686c-0.401,0-0.729,0.327-0.729,0.729c0,0.407,0.327,0.73,0.729,0.73
								h5.686h5.684c0.401,0,0.729-0.323,0.729-0.73C519.458,246.184,519.131,245.857,518.729,245.857z"/>
						</g>
					</g>
				</g>
			</g>
			<g>
				<polygon fill="#07004C" points="237.079,303.876 197.975,343.426 208.397,348.963 				"/>
				<path fill="#EA152A" d="M176.589,280.05c-9.992,9.162-11.153,23.77-2.718,34.193l23.684,29.266l40.242-39.866l-20.098-21.938
					C207.12,270.158,188.202,269.397,176.589,280.05z"/>
				<path fill="#07004C" d="M261.993,341.05l11.872,12.213l0,0c0-5.83-1.829-11.536-5.262-16.42l-0.675-0.959L261.993,341.05z"/>
				<path fill="#FFBE9D" d="M368.461,274.981l-1.379-4.201c-0.576-1.758-1.883-3.19-3.6-3.946l-16.121-7.095l5.499-10.938
					c1.443-2.876,0.127-6.359-2.878-7.619l-14.046,17.993c-1.059,1.357-1.682,2.99-1.79,4.697l-1.193,18.794l-74.295,60.212
					l-26.103-34.318l-30.401,30.937l21.805,29.064c15.974,18.643,45.011,19.125,61.535,1.021l66.658-73.023l7.792-12.178
					c1.784,1.544,4.522,1.309,5.996-0.519l1.155-1.43C368.788,280.333,369.299,277.537,368.461,274.981z"/>
			</g>
			<g>
				<g>
					<path fill="#230646" d="M599.684,373.033c-5.274,0-10.23-2.051-13.958-5.779l-60.282-60.282l7.976-7.976l60.283,60.283
						c1.597,1.597,3.722,2.476,5.981,2.476c2.259,0,4.382-0.879,5.981-2.476l95.896-95.897c2.368-2.367,1.495-5.105,1.17-5.887
						c-0.322-0.783-1.641-3.336-4.989-3.336V242.88c6.874,0,12.779,3.945,15.411,10.299c2.631,6.353,1.244,13.317-3.617,18.178
						l-95.896,95.897C609.913,370.982,604.955,373.033,599.684,373.033z"/>
				</g>
				<circle fill="#6185E0" cx="599.774" cy="366.275" r="16.123"/>
				<g>
					<g>
						<path fill="#230646" d="M522.049,290.936c-0.946,0-1.889-0.379-2.582-1.123l-27.231-29.264
							c-1.325-1.426-1.247-3.656,0.178-4.982c1.428-1.327,3.658-1.245,4.982,0.178l27.231,29.264
							c1.326,1.428,1.246,3.658-0.179,4.982C523.77,290.624,522.908,290.936,522.049,290.936z"/>
					</g>
					<g>
						<path fill="#230646" d="M514.316,297.752c-0.657,0-1.32-0.186-1.913-0.567l-16.369-10.595
							c-1.635-1.057-2.102-3.241-1.044-4.874c1.059-1.636,3.242-2.099,4.873-1.044l16.369,10.593
							c1.635,1.059,2.102,3.243,1.044,4.876C516.603,297.184,515.472,297.752,514.316,297.752z"/>
					</g>
					<g>
						<path fill="#230646" d="M517.456,306.563c-0.141,0-0.281-0.008-0.425-0.024l-19.503-2.35c-1.935-0.233-3.311-1.987-3.08-3.921
							c0.234-1.933,1.99-3.305,3.923-3.078l19.504,2.349c1.932,0.229,3.311,1.986,3.077,3.921
							C520.736,305.249,519.213,306.563,517.456,306.563z"/>
					</g>
					<g>
						<path fill="#230646" d="M535.938,296.342c-0.366,0-0.737-0.058-1.104-0.18c-1.848-0.611-2.853-2.603-2.242-4.452l3.201-9.693
							c0.408-1.23,0.373-2.574-0.098-3.787l-3.788-9.751c-0.703-1.813,0.196-3.854,2.01-4.56c1.818-0.71,3.857,0.195,4.562,2.008
							l3.787,9.75c1.063,2.732,1.143,5.77,0.223,8.554l-3.202,9.689C538.797,295.402,537.418,296.342,535.938,296.342z"/>
					</g>
					<path fill="#6185E0" d="M538.547,298.454c0,8.904-7.218,16.126-16.122,16.126s-16.123-7.222-16.123-16.126
						c0-8.903,7.219-16.123,16.123-16.123S538.547,289.551,538.547,298.454z"/>
				</g>
			</g>
			<g>
				<g>
					<g>
						<path fill="#6185E0" d="M687.873,74.446h-42.851c7.383,0,13.368,5.985,13.368,13.367v83.125
							c0,7.38-5.985,13.367-13.368,13.367h42.851c7.382,0,13.367-5.987,13.367-13.367V87.813
							C701.24,80.431,695.255,74.446,687.873,74.446z"/>
						<path fill="#82ACF9" d="M658.391,170.938V87.813c0-7.382-5.985-13.367-13.368-13.367H605.29h-42.851
							c-7.383,0-13.367,5.985-13.367,13.367v83.125c0,7.38,5.984,13.367,13.367,13.367h42.851h39.732
							C652.405,184.305,658.391,178.318,658.391,170.938z"/>
					</g>
					<g>
						<g>
							<path fill="#6185E0" d="M636.775,166.45h-82.063c-3.114,0-5.64-2.526-5.64-5.64V96.588c0-3.115,2.525-5.64,5.64-5.64h82.063
								c3.115,0,5.64,2.525,5.64,5.64v64.223C642.415,163.924,639.891,166.45,636.775,166.45z"/>
							<path fill="#816D9B" d="M624.682,166.45h-82.063c-3.113,0-5.639-2.526-5.639-5.64V96.588c0-3.115,2.525-5.64,5.639-5.64
								h82.063c3.117,0,5.642,2.525,5.642,5.64v64.223C630.323,163.924,627.799,166.45,624.682,166.45z"/>
							<rect x="544.617" y="98.586" fill="#230646" width="78.067" height="60.224"/>
							<rect x="544.617" y="98.586" fill="#5B406F" width="9.133" height="60.224"/>
						</g>
						<g>
							<g>
								<polygon fill="#36FFFF" points="586.06,135.421 562.858,135.421 562.858,140.233 567.673,140.233 567.673,145.048 
									572.485,145.048 572.485,140.233 599.634,140.233 599.634,145.048 604.448,145.048 604.448,140.233 609.26,140.233 
									609.26,135.421 								"/>
								<rect x="572.485" y="145.048" fill="#36FFFF" width="27.148" height="4.813"/>
							</g>
							<g>
								<polygon fill="#36FFFF" points="577.299,109.822 572.485,109.822 567.673,109.822 567.673,114.635 562.858,114.635 
									562.858,119.448 567.673,119.448 567.673,124.261 572.485,124.261 577.299,124.261 577.299,119.448 582.112,119.448 
									582.112,114.635 577.299,114.635 								"/>
								<polygon fill="#36FFFF" points="604.448,114.635 604.448,109.822 599.634,109.822 594.82,109.822 594.82,114.635 
									590.006,114.635 590.006,119.448 594.82,119.448 594.82,124.261 599.634,124.261 604.448,124.261 604.448,119.448 
									609.26,119.448 609.26,114.635 								"/>
							</g>
						</g>
					</g>
					<g>
						<path fill="#4464C1" d="M678.804,103.437c-7.383,0-13.367,5.984-13.367,13.367v28.641c0,7.382,5.984,13.366,13.367,13.366
							h13.617v-55.374H678.804z"/>
						<path fill="#82ACF9" d="M696.081,103.437h-7.32c-7.383,0-13.367,5.984-13.367,13.367v28.641
							c0,7.382,5.984,13.366,13.367,13.366h7.32c7.382,0,13.364-5.984,13.364-13.366v-28.641
							C709.445,109.421,703.463,103.437,696.081,103.437z"/>
						<g>
							<path fill="#6185E0" d="M696.081,111.074h-7.32c-0.053,0-0.104,0.015-0.16,0.016c3.084,0.087,5.569,2.608,5.569,5.712v28.641
								c0,3.106-2.485,5.626-5.569,5.714c0.056,0,0.107,0.013,0.16,0.013h7.32c3.156,0,5.728-2.569,5.728-5.728v-28.641
								C701.809,113.644,699.237,111.074,696.081,111.074z"/>
							<path fill="#4464C1" d="M694.17,145.444v-28.641c0-3.104-2.485-5.625-5.569-5.712c-3.083,0.087-5.568,2.608-5.568,5.712
								v28.641c0,3.106,2.485,5.626,5.568,5.714C691.685,151.07,694.17,148.551,694.17,145.444z"/>
						</g>
					</g>
				</g>
				<g>
					<rect x="605.674" y="184.305" fill="#230646" width="50.581" height="24.814"/>
					<rect x="598.713" y="184.305" fill="#816D9B" width="64.504" height="5.97"/>
					<rect x="598.713" y="193.725" fill="#816D9B" width="64.504" height="5.973"/>
					<rect x="598.713" y="203.149" fill="#816D9B" width="64.504" height="5.97"/>
				</g>
			</g>
			<g id="Group_1430_1_" transform="translate(1383.186 -2488.141)">
				<g id="Group_1424_1_">
					<path id="Path_29035_1_" fill="#263238" d="M-1174.369,2663.724c0.578,1.448,0.291,3.097-0.736,4.266
						c-1.085,1.116-2.724,1.487-4.182,0.946c-2.72-1.035-3.467-4.447-3.232-7.295c0.119-2.839,0.765-5.964-0.766-8.383
						c-1.128-1.9-3.283-2.887-4.91-4.276c-3.041-2.445-4.772-6.162-4.693-10.063c0.188-3.921,2.577-7.398,6.168-8.979
						c3.558-1.438,8.368-0.879,10.835-3.881c1.769-2.244,1.514-5.374,2.794-7.899c2.016-3.965,7.073-5.128,11.391-4.962
						c4.408,0.043,8.925,0.979,13.027-0.636c3.458-1.314,6.065-4.107,9.112-6.05c7.07-4.108,15.938-3.452,22.33,1.653
						c6.13,5.036,8.452,14.138,5.716,21.576c-0.938,2.727-2.775,5.054-5.205,6.603"/>
					<g id="Group_1415_1_" transform="translate(17.717 27.951)">
						<g id="Group_1414_1_">
							<g id="Group_1413_1_">
								<g id="Group_1400_1_">
									<path id="Path_29036_1_" fill="#FFBE9D" d="M-1160.701,2716.805L-1160.701,2716.805
										c11.904-1.441,20.465-11.595,19.118-22.688c-0.004-0.03-0.008-0.063-0.011-0.092l-2.592-19.06
										c0,0,16.975-3.586,16.319-19.609c-0.762-16.01-5.875-52.555-5.875-52.555l0,0c-20.323-6.627-43.076-2.403-59.469,11.033
										l-2.478,1.977l11.267,83.803c1.356,10.94,11.976,18.636,23.72,17.19
										C-1160.702,2716.805-1160.702,2716.805-1160.701,2716.805z"/>
								</g>
								<g id="Group_1404_1_" transform="translate(65.523 35.722)">
									<g id="Group_1401_1_" transform="translate(3.725 3.755)">
										<path id="Path_29037_1_" fill="#263238" d="M-1203.874,2595.033c-3.076-0.201-3.535-4.101-0.605-5.124l0.444-0.052
											c3.073,0.199,3.535,4.1,0.606,5.124L-1203.874,2595.033z"/>
									</g>
									<g id="Group_1403_1_">
										<g id="Group_1402_1_">
											<path id="Path_29038_1_" fill="#263238" d="M-1197.453,2592.933c-0.293,0.375-2.026-0.888-4.377-0.725
												c-2.363,0.054-4.002,1.492-4.265,1.184c-0.125-0.099,0.143-0.696,0.857-1.345c0.931-0.806,2.115-1.265,3.346-1.299
												c1.235-0.039,2.454,0.288,3.501,0.942C-1197.64,2592.282-1197.353,2592.808-1197.453,2592.933z"/>
										</g>
									</g>
								</g>
								<g id="Group_1408_1_" transform="translate(33.716 36.552)">
									<g id="Group_1405_1_" transform="translate(2.706 1.659)">
										<path id="Ellipse_373_1_" fill="#263238" d="M-1198.841,2595.398c0.638-1.203,2.134-1.661,3.337-1.022
											c1.205,0.641,1.66,2.132,1.021,3.336c-0.638,1.205-2.13,1.664-3.337,1.023
											C-1199.021,2598.098-1199.48,2596.604-1198.841,2595.398z"/>
									</g>
									<g id="Group_1407_1_">
										<g id="Group_1406_1_">
											<path id="Path_29039_1_" fill="#263238" d="M-1191.189,2595.803c-0.293,0.374-2.026-0.889-4.378-0.724
												c-2.363,0.054-4.004,1.49-4.265,1.183c-0.125-0.098,0.144-0.696,0.858-1.345c0.934-0.805,2.113-1.267,3.349-1.299
												c1.235-0.039,2.454,0.288,3.501,0.94C-1191.379,2595.152-1191.091,2595.679-1191.189,2595.803z"/>
										</g>
									</g>
								</g>
								<g id="Group_1410_1_" transform="translate(54.426 39.199)">
									<g id="Group_1409_1_">
										<path id="Path_29040_1_" fill="#263238" d="M-1201.185,2612.111c-0.025-0.225,1.396-0.619,3.719-1.004
											c0.67-0.078,1.102-0.245,1.174-0.592c-0.056-0.614-0.242-1.207-0.547-1.742c-0.739-1.495-1.383-3.114-2.138-4.718
											c-3.046-6.645-5.178-12.265-4.858-12.414c0.32-0.149,3.097,5.169,6.029,11.828c0.753,1.604,1.401,3.221,2.03,4.728
											c0.462,0.762,0.648,1.655,0.526,2.538c-0.139,0.49-0.519,0.878-1.007,1.022c-0.32,0.12-0.654,0.198-0.991,0.23
											C-1199.697,2612.271-1201.159,2612.332-1201.185,2612.111z"/>
									</g>
								</g>
								<g id="Group_1411_1_" transform="translate(44.841 67.412)">
									<path id="Path_29041_1_" fill="#FFFFFF" d="M-1199.025,2587.034c5.982,2.261,12.248,3.675,18.621,4.194
										c0,0-3.945,7.219-11.873,4.779C-1200.577,2593.433-1199.025,2587.034-1199.025,2587.034z"/>
								</g>
								<g id="Group_1412_1_" transform="translate(27.243 91.059)">
									<path id="Path_29042_1_" fill="#EB996E" d="M-1170.814,2589.126c0,0-10.764,1.614-22.84-4.977
										c0,0,6.056,12.049,23.131,9.354L-1170.814,2589.126z"/>
								</g>
							</g>
						</g>
					</g>
					<path id="Path_29043_1_" fill="#263238" d="M-1115.477,2635.408c0,0-9.628,6.449-24.098,1.607
						c-9.41-3.181-20.12-3.945-22.124-1.787c-2.019,2.045-1.257,11.331-9.617,15.143c0,0,2.96,17.384-4.014,17.646
						c-7.071,0.384-6.386-27.261-6.386-27.261l15.793-10.678l18.033-6.087l17.851,0.034l13.999,1.846L-1115.477,2635.408z"/>
					<g id="Group_1419_1_" transform="translate(4.438 64.144)">
						<g id="Group_1416_1_">
							<path id="Path_29044_1_" fill="#FFBE9D" d="M-1179.102,2598.032c-0.349-0.072-12.073-2.752-10.914,8.969
								c1.161,11.721,12.608,8.222,12.68,7.875C-1177.374,2614.547-1179.102,2598.032-1179.102,2598.032z"/>
						</g>
						<g id="Group_1418_1_" transform="translate(3.737 4.529)">
							<g id="Group_1417_1_">
								<path id="Path_29045_1_" fill="#EB996E" d="M-1185.177,2606.205c-0.181,0.125-0.354,0.257-0.517,0.4
									c-0.488,0.231-1.035,0.296-1.562,0.185c-1.277-0.3-2.52-2.185-2.77-4.305c-0.147-1.002-0.035-2.03,0.328-2.978
									c0.109-0.787,0.636-1.454,1.375-1.745c0.475-0.165,0.998,0.002,1.29,0.411c0.086,0.173,0.146,0.354,0.178,0.545
									c0.133-0.205,0.185-0.454,0.144-0.696c-0.097-0.294-0.286-0.549-0.538-0.728c-0.349-0.204-0.757-0.274-1.152-0.201
									c-0.969,0.264-1.705,1.051-1.906,2.033c-0.388,1.063-0.524,2.197-0.397,3.322c0.276,2.336,1.764,4.423,3.506,4.78
									c0.658,0.106,1.33-0.054,1.867-0.444C-1185.138,2606.54-1185.068,2606.192-1185.177,2606.205z"/>
							</g>
						</g>
					</g>
					<g id="Group_1420_1_" transform="translate(11.627 19.351)">
						<path id="Path_29046_1_" fill="#263238" d="M-1196.63,2606.998c-0.125-0.1,1.814-0.894,4.023-0.364
							c2.32,0.515,3.632,2.054,3.423,2.193c-0.098,0.122-1.481-1.068-3.581-1.61
							C-1194.035,2606.95-1195.338,2606.874-1196.63,2606.998z"/>
					</g>
					<g id="Group_1421_1_" transform="translate(19.857 11.007)">
						<path id="Path_29047_1_" fill="#263238" d="M-1198.67,2607.493c0.222-0.026,0.177,2.465,0.964,5.308
							c0.79,2.845,2.377,4.801,2.277,4.927c-0.426-0.365-0.817-0.774-1.16-1.218c-0.729-1.087-1.286-2.277-1.66-3.53
							C-1198.795,2611.203-1198.941,2609.331-1198.67,2607.493z"/>
					</g>
					<g id="Group_1422_1_" transform="translate(79.93 58.164)">
						<path id="Path_29048_1_" fill="#263238" d="M-1206.057,2594.207c-0.122-0.101,0.382-0.61,1.232-1.05
							c1.201-0.591,2.493-0.972,3.82-1.128c1.338-0.185,2.699-0.077,3.993,0.318c0.942,0.339,1.539,0.608,1.454,0.845
							c-0.073,0.347-2.402-0.281-5.301,0.063C-1203.668,2593.358-1205.901,2594.527-1206.057,2594.207z"/>
					</g>
					<g id="Group_1423_1_" transform="translate(47.57 55.121)">
						<path id="Path_29049_1_" fill="#263238" d="M-1200.054,2597.881c-0.124-0.098,0.381-0.61,1.234-1.049
							c1.197-0.589,2.49-0.972,3.819-1.129c1.337-0.186,2.697-0.076,3.991,0.317c0.943,0.341,1.542,0.609,1.454,0.845
							c-0.071,0.349-2.402-0.279-5.301,0.064C-1197.666,2597.032-1199.789,2598.188-1200.054,2597.881z"/>
					</g>
				</g>
				<g id="Group_1429_1_" transform="translate(17.03 61.206)">
					<g id="Group_1425_1_" transform="translate(59.963 0.83)">
						<path id="Path_29050_1_" fill="#263238" stroke="#000000" stroke-width="1.4099" stroke-miterlimit="10" d="
							M-1204.897,2592.465l0.079,0.668c0.069,0.634,0.179,1.262,0.337,1.881c0.102,0.969,0.254,1.933,0.453,2.887
							c0.135,1.286,0.473,2.543,1.006,3.719c0.673,1.414,1.671,2.651,2.912,3.611c1.433,1.061,3.106,1.757,4.87,2.022
							c0.975,0.134,1.965,0.092,2.926-0.121c1.006-0.115,1.972-0.459,2.821-1.009c1.894-0.975,3.416-2.544,4.33-4.466
							c0.891-1.819,1.201-3.867,0.886-5.867l-0.686-5.794l0.251,0.199c-5.793,0.683-10.819,1.165-14.495,1.6
							c-1.783,0.211-3.119,0.37-4.248,0.391l-1.112,0.13c-0.088,0.085-0.201,0.137-0.322,0.151c0,0,0.447-0.054,1.438-0.283
							c1.001-0.119,2.45-0.289,4.11-0.599c3.675-0.436,8.674-1.137,14.579-1.835l0.225-0.025l0.711,6.012
							c0.358,2.121,0.023,4.302-0.959,6.213c-1.021,2.018-2.639,3.669-4.637,4.729c-0.971,0.46-1.991,0.808-3.042,1.038
							c-1.001,0.232-2.042,0.237-3.045,0.022c-1.863-0.222-3.631-0.951-5.109-2.108c-1.274-1.043-2.313-2.344-3.048-3.818
							c-0.555-1.209-0.862-2.515-0.907-3.845c-0.144-1.002-0.225-2.012-0.244-3.021c-0.104-0.631-0.139-1.271-0.114-1.908
							C-1204.885,2592.575-1204.911,2592.354-1204.897,2592.465z"/>
					</g>
					<g id="Group_1426_1_" transform="translate(26.083)">
						<path id="Path_29051_1_" fill="#263238" stroke="#000000" stroke-width="1.4099" stroke-miterlimit="10" d="
							M-1198.388,2595.855l0.079,0.667c0.064,0.634,0.178,1.263,0.333,1.882c0.102,0.968,0.254,1.934,0.456,2.886
							c0.133,1.287,0.473,2.542,1.004,3.722c0.674,1.413,1.672,2.649,2.911,3.61c1.434,1.061,3.106,1.754,4.873,2.02
							c0.972,0.134,1.964,0.092,2.925-0.118c1.006-0.114,1.972-0.46,2.821-1.013c1.893-0.971,3.413-2.542,4.328-4.465
							c0.893-1.816,1.202-3.865,0.889-5.866l-0.687-5.792l0.248,0.198c-5.792,0.684-10.818,1.165-14.495,1.6
							c-1.781,0.211-3.118,0.369-4.244,0.389l-1.117,0.132c-0.195,0.251-0.319,0.151-0.319,0.151s0.444-0.052,1.438-0.283
							c1.002-0.118,2.447-0.289,4.107-0.596c3.679-0.435,8.675-1.14,14.583-1.839l0.225-0.026l0.711,6.015
							c0.358,2.123,0.02,4.304-0.959,6.215c-1.023,2.014-2.642,3.668-4.639,4.728c-0.971,0.459-1.989,0.809-3.041,1.038
							c-1.001,0.23-2.041,0.237-3.046,0.022c-1.866-0.221-3.631-0.949-5.107-2.108c-1.275-1.043-2.314-2.347-3.052-3.819
							c-0.552-1.21-0.86-2.518-0.907-3.847c-0.142-1.002-0.222-2.01-0.244-3.02c-0.099-0.632-0.138-1.269-0.113-1.908
							C-1198.385,2596.239-1198.372,2596.045-1198.388,2595.855z"/>
					</g>
					<g id="Group_1427_1_" transform="translate(51.163 1.798)">
						
							<ellipse id="Ellipse_374_1_" transform="matrix(-0.1188 -0.9929 0.9929 -0.1188 -3916.3911 1709.5647)" fill="#263238" stroke="#000000" stroke-width="1.4099" stroke-miterlimit="10" cx="-1199.569" cy="2592.698" rx="0.337" ry="3.927"/>
					</g>
					<g id="Group_1428_1_" transform="translate(0 1.895)">
						<path id="Ellipse_375_1_" fill="#263238" stroke="#000000" stroke-width="1.4099" stroke-miterlimit="10" d="
							M-1182.851,2596.448c5.902-0.716,10.707-1.149,10.73-0.965c0.022,0.188-4.746,0.916-10.65,1.632
							c-5.904,0.719-10.709,1.149-10.731,0.962C-1193.525,2597.894-1188.758,2597.165-1182.851,2596.448z"/>
					</g>
				</g>
			</g>
		</g>
	</g>
</g>
</svg>
